<?xml version="1.0" standalone="no"?>
<!DOCTYPE svg PUBLIC "-//W3C//DTD SVG 1.1//EN" "http://www.w3.org/Graphics/SVG/1.1/DTD/svg11.dtd" >
<svg xmlns="http://www.w3.org/2000/svg">
<metadata>
This is a custom SVG webfont generated by Font Squirrel.
Copyright   :  infofontfontde  Copyright Evert Bloemsma 1998 Published by FontShop International  FontFont Release 22
Foundry     : Evert Bloemsma  Published by FontShop International FontFont Release
</metadata>
<defs>
<font id="CoconLight" horiz-adv-x="1167" >
<font-face units-per-em="2048" ascent="1638" descent="-410" />
<missing-glyph horiz-adv-x="450" />
<glyph unicode=" "  horiz-adv-x="450" />
<glyph unicode="&#x09;" horiz-adv-x="450" />
<glyph unicode="&#xa0;" horiz-adv-x="450" />
<glyph unicode="!" horiz-adv-x="643" d="M168 143q0 63 43 104.5t104 41.5t103.5 -41t42.5 -105q0 -63 -42 -103t-104 -40q-61 0 -104 40t-43 103zM203 1395h88q55 0 90 -34t33 -101l-27 -809h-41q-111 0 -117 137z" />
<glyph unicode="&#x22;" horiz-adv-x="849" d="M131 1393h78q57 0 90 -40t27 -112l-29 -344h-25q-53 0 -81.5 37t-34.5 123zM510 1393h78q59 0 91 -40t26 -112l-29 -344h-25q-51 0 -80.5 37t-35.5 123z" />
<glyph unicode="#" d="M63 389v29q0 47 25 72.5t78 25.5h104l64 356h-180v27q0 47 24.5 72.5t77.5 25.5h98l72 396h31q53 0 74.5 -29t9.5 -94l-49 -273h282l70 396h30q51 0 75 -31t12 -98l-48 -267h174v-26q0 -47 -26.5 -73t-79.5 -26h-90l-64 -356h170v-27q0 -47 -25.5 -73.5t-78.5 -26.5h-90 l-72 -389h-47q-45 0 -63.5 25.5t-4.5 101.5l50 262h-283l-70 -389h-49q-43 0 -61.5 26.5t-3.5 102.5l47 260h-183zM408 516h282l64 356h-285z" />
<glyph unicode="$" d="M115 989q2 154 106.5 263.5t296.5 136.5v268h33q35 0 59.5 -15.5t24.5 -58.5v-188q119 -2 191.5 -33t112.5 -73t54.5 -85t14.5 -67v-66h-17q-63 82 -148 121t-229 39q-59 0 -114.5 -10.5t-100.5 -35t-72.5 -65.5t-27.5 -102q0 -53 16.5 -89t59.5 -61.5t118.5 -49 t194.5 -52.5q70 -18 134.5 -46t113.5 -71t77.5 -103.5t28.5 -142.5q-2 -154 -105 -264t-302 -135v-252h-41q-45 0 -60.5 17.5t-15.5 58.5v170q-82 2 -151.5 24.5t-121.5 60.5t-82 87t-30 102v84h12q63 -90 167 -142t233 -52q170 0 242.5 54t72.5 167q0 53 -11 91t-53 68.5 t-121 57.5t-214 57q-76 16 -139.5 42t-109.5 65t-71.5 94t-25.5 131z" />
<glyph unicode="%" horiz-adv-x="2054" d="M119 952q0 100 22.5 185.5t66.5 147t108.5 95t146.5 33.5q76 0 136 -33.5t102 -92t64.5 -136.5t22.5 -166q0 -100 -22.5 -185t-66.5 -146.5t-108.5 -96.5t-146.5 -35q-76 0 -136 34t-102 92.5t-64.5 137t-22.5 166.5zM285 983q0 -63 9 -118.5t29.5 -96.5t54.5 -64.5 t83 -23.5q45 0 75.5 23.5t50 61.5t28 87t8.5 100q0 63 -9.5 118.5t-30 97.5t-54 65.5t-83.5 23.5q-45 0 -75.5 -23.5t-50 -61t-27.5 -88t-8 -101.5zM643 55q0 33 25 88l567 1250h53q23 0 43.5 -23.5t20.5 -62.5q0 -25 -13 -52l-571 -1255h-57q-68 0 -68 55zM1255 410 q0 100 22.5 185t67 146.5t109 95t145.5 33.5q76 0 136.5 -33.5t102.5 -92t64.5 -136.5t22.5 -166q0 -100 -22.5 -185t-66.5 -146.5t-108.5 -96t-146.5 -34.5q-76 0 -136.5 33.5t-102.5 92t-64.5 137.5t-22.5 167zM1421 440q0 -63 9.5 -118.5t30 -96.5t54 -64.5t82.5 -23.5 q45 0 76 23.5t50.5 61.5t27.5 87t8 101q0 63 -9 118.5t-29.5 97.5t-54.5 65.5t-83 23.5q-45 0 -75.5 -23.5t-50 -61.5t-28 -88.5t-8.5 -101.5z" />
<glyph unicode="&#x26;" horiz-adv-x="1388" d="M115 367q0 117 68.5 220t207.5 187q-78 86 -112.5 154.5t-34.5 142.5q0 63 22.5 126t69.5 110t118.5 76.5t168.5 29.5q74 0 134 -21.5t105 -60.5t69.5 -94t24.5 -125q0 -53 -17 -99t-56 -91t-99.5 -90.5t-148.5 -96.5q37 -47 78 -95t82 -93t79.5 -86t69.5 -72 q78 92 117 191.5t43 185.5h49q29 0 57.5 -29.5t28.5 -85.5q0 -80 -51 -179t-131 -196q49 -49 87 -84.5t69.5 -59t61.5 -37t64 -19.5q-23 -63 -45 -78.5t-67 -15.5q-113 0 -207 96l-78 80q-33 -33 -68.5 -65t-82 -57.5t-106.5 -40.5t-142 -15q-111 0 -192 29.5t-133 80.5 t-77.5 122t-25.5 155zM297 401q0 -135 71.5 -196.5t204.5 -61.5q78 0 139.5 33t125.5 96q-94 94 -182.5 190.5t-172.5 192.5q-82 -51 -134 -114.5t-52 -139.5zM426 1073q0 -35 11.5 -63.5t29.5 -55t39.5 -51t40.5 -51.5q111 59 173 112.5t62 125.5q0 82 -47 122.5t-125 40.5 q-86 0 -135 -45t-49 -135z" />
<glyph unicode="'" horiz-adv-x="643" d="M229 1434h78q57 0 90 -40t27 -112l-29 -344h-24q-53 0 -82 37t-35 123z" />
<glyph unicode="(" horiz-adv-x="724" d="M111 549q0 143 24.5 273t69.5 241t106.5 198t134.5 144q37 29 85.5 49.5t86.5 20.5h72q-86 -88 -155.5 -182.5t-118.5 -201t-75 -229.5t-26 -270q0 -156 25 -289t71 -247.5t113.5 -214t153.5 -187.5h-68q-33 0 -72.5 15.5t-82.5 43.5q-59 37 -121 118t-111 192.5 t-80.5 246t-31.5 279.5z" />
<glyph unicode=")" horiz-adv-x="724" d="M37 -348q86 88 155.5 182t118.5 200.5t75 229.5t26 271q0 156 -25 288.5t-71 247.5t-113.5 214t-153.5 188h68q33 0 72.5 -15.5t82.5 -44.5q59 -37 121 -118t111 -192.5t80.5 -245.5t31.5 -279q0 -143 -24.5 -273.5t-69.5 -241t-106.5 -197.5t-134.5 -145 q-37 -29 -85.5 -49t-86.5 -20h-72z" />
<glyph unicode="*" horiz-adv-x="1054" d="M88 1032q2 35 11.5 69t26.5 60.5t44 43t61 16.5q47 0 84 -16.5t72 -45.5q18 -16 48 -34.5t54 -32.5q4 29 6.5 49t2.5 37q0 66 -11.5 143.5t-58.5 134.5q27 8 45.5 13.5t38.5 5.5q66 0 108 -30t42 -95q0 -27 -6.5 -58.5t-18.5 -60.5q-10 -27 -21.5 -64t-21.5 -80 q43 2 89 19.5t88 43.5t76 58.5t56 65.5q25 -37 44.5 -74t19.5 -78q0 -61 -45 -88.5t-107 -27.5q-59 0 -117.5 -5.5t-87.5 -13.5q20 -23 34.5 -41t31.5 -43q25 -41 47 -69.5t43.5 -49t45.5 -32t52 -19.5q-23 -45 -47 -73.5t-67 -28.5q-29 0 -57.5 11t-51.5 44 q-16 27 -36.5 72t-26.5 71q-4 18 -18.5 48t-31.5 65q-84 -102 -113.5 -180t-29.5 -148q-160 10 -160 123q0 53 25.5 89t62.5 65q41 29 72 54.5t59 53.5q-78 33 -132 43.5t-113 10.5q-29 0 -55.5 -5.5t-55.5 -15.5z" />
<glyph unicode="+" d="M72 512v76q0 27 22.5 53.5t65.5 26.5h344v422h69q25 0 49.5 -24t24.5 -71v-327h424v-58q0 -31 -27.5 -64.5t-93.5 -33.5h-303v-469h-53q-29 0 -59.5 30.5t-30.5 102.5v336h-432z" />
<glyph unicode="," horiz-adv-x="589" d="M158 121q0 53 35.5 91t107.5 38q59 0 105.5 -54.5t46.5 -175.5q0 -145 -75 -239t-208 -100v12q47 49 73.5 102t26.5 101q0 35 -16 67.5t-45 52.5q-18 12 -34.5 44t-16.5 61z" />
<glyph unicode="-" horiz-adv-x="722" d="M111 549v61q0 45 32.5 78t81.5 33h389v-55q0 -47 -28.5 -82t-75.5 -35h-399z" />
<glyph unicode="." horiz-adv-x="589" d="M147 143q0 63 43 104.5t105 41.5q61 0 103 -41t42 -105q0 -63 -42 -103t-103 -40t-104.5 40t-43.5 103z" />
<glyph unicode="/" horiz-adv-x="989" d="M129 55q0 37 21 84l600 1334h61q29 0 50.5 -21.5t21.5 -48.5t-11 -47l-616 -1376h-63q-14 0 -39 17t-25 58z" />
<glyph unicode="0" d="M88 672q0 356 124 548.5t382 192.5q98 0 185 -39t153.5 -122t105.5 -214t39 -313q0 -193 -34.5 -334t-100 -233t-159 -136.5t-212.5 -44.5q-102 0 -190 46.5t-152.5 135.5t-102.5 218t-38 295zM279 723q0 -158 25.5 -266.5t67.5 -176t97 -97t115 -29.5q61 0 116.5 26.5 t98.5 86t68.5 157.5t25.5 244q0 166 -21.5 275.5t-62.5 176t-101.5 93t-136.5 26.5q-63 0 -117.5 -29.5t-93 -92t-60 -160t-21.5 -234.5z" />
<glyph unicode="1" horiz-adv-x="747" d="M-10 1208l213 109q66 33 120 54.5t111 21.5q41 0 75 -28t34 -69v-1296h-68q-53 0 -88 31.5t-35 107.5v1059l-209 -98q-49 -23 -86 -6.5t-47 45.5z" />
<glyph unicode="2" d="M129 80q0 37 7 68.5t32 67.5t71 82t119 112l293 260q98 88 136 157.5t38 147.5q0 125 -75.5 195.5t-223.5 70.5q-80 0 -140 -18.5t-105 -48t-76 -67.5t-53 -75h-13v86q0 55 27 107.5t80 94.5t133 67.5t186 25.5q96 0 178 -31.5t142.5 -86t94.5 -128t34 -159.5 q0 -82 -16.5 -145.5t-50.5 -117t-85 -104.5t-119 -109l-282 -239q-35 -29 -68 -62.5t-49 -58.5h705v-66q0 -16 -6.5 -34.5t-19.5 -35t-36.5 -26.5t-58.5 -10h-707q-43 0 -67.5 23.5t-24.5 56.5z" />
<glyph unicode="3" d="M106 1055v80q0 43 28 91t81 90t132 69.5t181 27.5q113 0 202 -28.5t150.5 -79t93.5 -120t32 -149.5q0 -74 -22.5 -128t-61.5 -93t-92.5 -62.5t-114.5 -35.5q63 -12 119.5 -40t98.5 -69t65.5 -90t23.5 -104q0 -96 -29.5 -176t-91 -137.5t-157 -89t-226.5 -31.5 q-84 0 -157.5 20t-130 57t-89 87.5t-32.5 109.5v84h12q143 -186 411 -186q143 0 221 58t78 179q0 244 -370 246q-51 0 -72.5 24.5t-21.5 65.5v53h102q98 4 165.5 19.5t107.5 43t57.5 69.5t17.5 100q0 231 -321 231q-152 0 -244 -56.5t-133 -129.5h-13z" />
<glyph unicode="4" d="M76 444q0 20 2 42t10 40q47 104 127 233.5t168 253.5t172 226t139 154h78q49 0 88 -34t39 -120v-735h223v-62q0 -53 -28.5 -74.5t-73.5 -21.5h-121v-346h-68q-49 0 -84.5 29.5t-35.5 99.5v217h-494q-66 0 -103.5 30.5t-37.5 67.5zM250 504h461v708q-41 -47 -102.5 -132 t-127 -185t-128 -204.5t-103.5 -186.5z" />
<glyph unicode="5" d="M166 236v63h12q59 -72 154.5 -109.5t236.5 -37.5q145 0 226.5 63.5t81.5 208.5q0 141 -83 199.5t-268 58.5q-37 0 -81 -4t-90 -12.5t-91 -18.5t-82 -22v575q0 104 46 148.5t132 44.5h644v-62q0 -53 -31 -81.5t-92 -28.5h-529v-406q18 4 48 9t63 9.5t65.5 7.5t57.5 3 q233 0 356 -107.5t123 -294.5q0 -217 -134 -339.5t-374 -122.5q-90 0 -162.5 21.5t-124 56t-78 82t-26.5 96.5z" />
<glyph unicode="6" d="M109 637q0 170 39.5 312.5t115.5 245.5t184.5 160.5t245.5 57.5q82 0 141.5 -19.5t99.5 -50t59.5 -69.5t19.5 -78v-59h-10q-27 25 -54.5 45t-63.5 34.5t-83 22.5t-111 8q-88 0 -161.5 -33.5t-126 -104.5t-81 -179.5t-28.5 -255.5q18 43 53 82t81 67.5t100.5 46 t113.5 17.5q100 0 182 -32t138.5 -90t87 -139t30.5 -177q0 -104 -33.5 -190.5t-97 -148t-154.5 -96t-204 -34.5q-98 0 -186.5 38.5t-154 119.5t-104 205t-38.5 294zM303 479q0 -150 81 -243t224 -93t215 80t72 201q0 162 -72.5 230.5t-214.5 68.5q-74 0 -131 -23.5 t-95 -59.5t-58.5 -79t-20.5 -82z" />
<glyph unicode="7" d="M106 1221v59q0 47 27 80t90 33h699q68 0 94 -28t26 -77q0 -41 -34.5 -132t-94.5 -206l-276 -538q-43 -86 -61.5 -175.5t-18.5 -154.5v-82h-76q-49 0 -79.5 28.5t-30.5 98.5q0 82 29.5 174t66.5 162l283 528q35 63 61.5 121.5t36.5 108.5h-742z" />
<glyph unicode="8" d="M115 375q0 51 16 102t49 95t84 79t121 56q-135 43 -193.5 116.5t-58.5 180.5q0 86 32 160.5t91 130t147.5 87t202.5 31.5q100 0 184 -27.5t145.5 -76.5t95.5 -120t34 -157q0 -135 -67.5 -206.5t-192.5 -104.5q68 -16 120 -52t88 -80t54 -94.5t18 -93.5 q0 -82 -28.5 -158.5t-89 -135t-152.5 -93t-221 -34.5q-119 0 -208 31.5t-149.5 85t-91 126t-30.5 152.5zM303 393q0 -111 81 -176t222 -65q76 0 131.5 18t91 50t52 74t16.5 91q0 51 -17.5 96t-54.5 79t-94 53.5t-139 19.5q-141 0 -215 -70t-74 -170zM319 1024 q0 -111 75 -172t214 -61q137 0 204 58t67 165q0 104 -72 168.5t-213 64.5t-208 -63.5t-67 -159.5z" />
<glyph unicode="9" d="M82 926q0 104 38 193t104.5 154.5t155.5 102.5t191 37q109 0 199 -33.5t154.5 -111.5t100.5 -205t36 -311q0 -395 -122 -583.5t-392 -188.5q-86 0 -160 18t-128 53t-85 88.5t-31 122.5v64h11q55 -82 153.5 -130.5t241.5 -48.5q174 0 249.5 129.5t75.5 391.5 q-47 -86 -131 -135.5t-192 -49.5q-115 0 -202 36t-146.5 97.5t-90 141.5t-30.5 168zM268 950q0 -160 81 -233.5t231 -73.5q72 0 127 22.5t92 58.5t55 81t18 92q0 184 -78.5 266t-234.5 82q-72 0 -126 -22.5t-91 -62.5t-55.5 -94.5t-18.5 -115.5z" />
<glyph unicode=":" horiz-adv-x="589" d="M147 143q0 63 43 104.5t105 41.5q61 0 103 -41t42 -105q0 -63 -42 -103t-103 -40t-104.5 40t-43.5 103zM147 948q0 63 43 104.5t105 41.5q61 0 103 -41t42 -105q0 -63 -42 -103t-103 -40t-104.5 40t-43.5 103z" />
<glyph unicode=";" horiz-adv-x="589" d="M147 948q0 63 43 104.5t105 41.5q61 0 103 -41t42 -105q0 -63 -42 -103t-103 -40t-104.5 40t-43.5 103zM158 121q0 53 35.5 91t107.5 38q59 0 105.5 -54.5t46.5 -175.5q0 -145 -75 -239t-208 -100v12q47 49 73.5 102t26.5 101q0 35 -16 67.5t-45 52.5q-18 12 -34.5 44 t-16.5 61z" />
<glyph unicode="&#x37e;" horiz-adv-x="589" d="M147 948q0 63 43 104.5t105 41.5q61 0 103 -41t42 -105q0 -63 -42 -103t-103 -40t-104.5 40t-43.5 103zM158 121q0 53 35.5 91t107.5 38q59 0 105.5 -54.5t46.5 -175.5q0 -145 -75 -239t-208 -100v12q47 49 73.5 102t26.5 101q0 35 -16 67.5t-45 52.5q-18 12 -34.5 44 t-16.5 61z" />
<glyph unicode="&#x3c;" d="M111 559v45q0 23 20.5 44.5t71.5 56.5q53 35 148 87t207 108t226.5 108.5t206.5 87.5v-60q0 -49 -26.5 -81.5t-98.5 -63.5q-37 -16 -102.5 -47t-145 -71t-163.5 -84t-158 -87q76 -47 168 -99t184 -102.5t179 -95.5t155 -76v-36q0 -68 -102 -68q-16 0 -46 11t-47 20 q-66 29 -152.5 74.5t-180 100t-184 114t-160.5 114.5z" />
<glyph unicode="=" d="M176 309v74q0 35 21.5 57.5t66.5 22.5h752v-78q0 -31 -26.5 -53.5t-61.5 -22.5h-752zM176 745v74q0 35 21.5 57.5t66.5 22.5h752v-78q0 -31 -26.5 -53.5t-61.5 -22.5h-752z" />
<glyph unicode="&#x3e;" d="M164 119v59q0 49 26.5 82t98.5 64q37 14 102.5 45.5t145 71.5t163.5 84t158 87q-78 47 -169 99.5t-183 102.5t-179 95t-155 76v37q0 68 102 68q16 0 46 -11.5t47 -19.5q66 -29 152.5 -74t180 -100.5t183.5 -114.5t161 -115v-45q0 -23 -20 -44t-72 -56q-53 -35 -148 -87 t-207 -107.5t-226.5 -107.5t-206.5 -89z" />
<glyph unicode="?" horiz-adv-x="966" d="M98 1085v64q0 47 20.5 97t65.5 91t116 67t173 26q100 0 176 -27t127 -73t77 -106.5t26 -127.5q0 -92 -39 -161t-111 -134l-176 -158q-33 -29 -45 -65.5t-12 -96.5v-59h-70q-25 0 -55.5 31.5t-30.5 78.5q0 72 33 127.5t63 83.5l150 134q31 27 51 49t31.5 43.5t16.5 46 t5 57.5q0 92 -69.5 139.5t-182.5 47.5q-78 0 -130 -16.5t-89 -43t-62.5 -57.5t-45.5 -58h-13zM291 143q0 63 43 104.5t104 41.5t103.5 -41t42.5 -105q0 -63 -42 -103t-104 -40q-61 0 -104 40t-43 103z" />
<glyph unicode="@" horiz-adv-x="1550" d="M100 635q0 160 54.5 305t153 255t237.5 174.5t311 64.5q135 0 246.5 -45.5t192.5 -125t126 -190t45 -239.5q0 -117 -29.5 -210.5t-80.5 -160t-122 -102t-151 -35.5q-66 0 -105.5 34.5t-59.5 122.5q-37 -88 -99.5 -122.5t-150.5 -34.5q-41 0 -81 22.5t-74 63.5t-54.5 98 t-20.5 127q0 96 31 180t86 146.5t131 98.5t166 36q45 0 90 -13.5t80 -37t56.5 -57.5t21.5 -75q0 -57 -23 -165q-10 -51 -17 -98.5t-7 -80.5q0 -109 67 -110q33 0 70 22.5t65.5 67.5t48 113.5t19.5 160.5q0 104 -31.5 193.5t-93 154t-153 101.5t-209.5 37q-119 0 -226.5 -46 t-188.5 -132t-129 -208t-48 -274q0 -131 39 -233.5t108.5 -172t165.5 -106.5t209 -37q70 0 154 9.5t170 44.5v-50q0 -39 -21.5 -56t-71.5 -38q-37 -16 -102.5 -24t-165.5 -8q-127 0 -240.5 45t-199.5 129t-137.5 205.5t-51.5 275.5zM625 657q0 -96 31.5 -130.5t70.5 -34.5 q53 0 88 28.5t58.5 80.5t39 127t29.5 167q-18 18 -46 30.5t-75 12.5q-39 0 -74.5 -21.5t-62.5 -59.5t-43 -89.5t-16 -110.5z" />
<glyph unicode="A" horiz-adv-x="1222" d="M39 90q0 47 21.5 144.5t58.5 220.5t85 260t103 266t112.5 237.5t110.5 174.5h62q59 0 101 -39t87 -117q31 -53 69 -135t78 -181.5t80 -214t74.5 -233.5t64.5 -239.5t46 -233.5h-68q-59 0 -88.5 25.5t-40.5 72.5q-14 72 -33.5 145.5t-31.5 125.5h-651q-10 -39 -21.5 -85 t-23 -95.5t-21.5 -97.5t-18 -91h-72q-84 0 -84 90zM322 518h561q-55 199 -122 370t-159 337q-49 -88 -89 -173t-73.5 -171t-62 -176.5t-55.5 -186.5z" />
<glyph unicode="B" horiz-adv-x="1249" d="M154 301v1045q31 10 72.5 20t88.5 18.5t93.5 13.5t83.5 5h184q104 0 185 -28.5t136.5 -78t84 -116t28.5 -142.5q0 -49 -11.5 -96t-39 -87t-75.5 -72.5t-122 -53.5q82 -23 135.5 -60.5t84 -82.5t43 -91t12.5 -83q0 -98 -35 -176t-96.5 -132.5t-145.5 -84t-182 -29.5h-164 q-96 0 -164.5 22.5t-111.5 62.5t-63.5 97t-20.5 129zM338 799h285q147 0 225 48t78 173q0 117 -75 167t-216 50h-115q-35 0 -83 -6t-99 -19v-413zM340 309q0 -152 184 -151h146q129 0 203.5 59t74.5 182q0 133 -72.5 188.5t-240.5 55.5h-295v-334z" />
<glyph unicode="C" horiz-adv-x="1210" d="M113 700q0 137 46 266.5t134 228.5t216 158.5t292 59.5q86 0 152.5 -23.5t112.5 -61.5t69.5 -84t23.5 -89v-72h-14q-59 88 -153.5 122t-188.5 34q-113 0 -205 -38t-158.5 -105.5t-102.5 -160.5t-36 -204q0 -143 39 -251.5t108.5 -180.5t161.5 -108.5t201 -36.5 q111 0 193.5 35.5t140.5 101.5h10v-58q0 -49 -25.5 -95t-73.5 -82t-119 -56t-163 -20q-137 0 -257 52t-210 147t-142 228t-52 293z" />
<glyph unicode="D" horiz-adv-x="1372" d="M154 287v1075q29 8 68.5 15t82.5 13.5t84 9.5t76 3h174q125 0 238.5 -49t197.5 -139.5t134.5 -218.5t50.5 -285q0 -162 -46.5 -295t-129.5 -227.5t-197.5 -146.5t-251.5 -52h-125q-178 0 -267 81t-89 216zM342 338q0 -96 49 -138t148 -42h75q109 0 194 37.5t143.5 107.5 t89 166t30.5 213q0 281 -128 417t-349 136h-80q-35 0 -84 -5t-88 -13v-879z" />
<glyph unicode="E" horiz-adv-x="1146" d="M133 569v252q0 45 4 95.5t10.5 100.5t14.5 97t18 84q25 102 66 148.5t110 46.5h727v-76q0 -37 -28.5 -66.5t-106.5 -29.5h-577q-23 -86 -36 -200t-13 -224h604v-60q0 -41 -29 -70.5t-92 -29.5h-483v-102q0 -104 20 -176t66.5 -116t118 -63.5t175.5 -19.5h107 q78 0 145.5 12t116.5 27v-54q0 -37 -8 -65.5t-36 -48t-79 -30.5t-137 -11h-172q-262 0 -384 146t-122 433z" />
<glyph unicode="F" horiz-adv-x="1001" d="M164 113v1108q0 94 44 133t159 39h624v-80q0 -29 -25.5 -61.5t-86.5 -32.5h-525v-402h543v-61q0 -49 -33 -78t-86 -29h-424v-649h-71q-59 0 -89 27t-30 86z" />
<glyph unicode="G" horiz-adv-x="1363" d="M143 690q0 154 47.5 286t138.5 229.5t225 152.5t310 55q86 0 156 -21.5t119 -57.5t74.5 -81t25.5 -92v-67h-10q-45 59 -140.5 103t-246.5 44q-98 0 -190.5 -31.5t-163 -97t-113.5 -165t-43 -234.5q0 -147 42 -254t112.5 -175.5t166 -100t201.5 -31.5q68 0 111 10 t68.5 32.5t35.5 58.5t10 89v129q0 45 -3 86t-7 72h84q45 0 71.5 -29t26.5 -68v-237q0 -147 -101 -231t-331 -84q-135 0 -258 51t-215 145t-147.5 224t-55.5 290z" />
<glyph unicode="H" horiz-adv-x="1404" d="M164 137v1256h100q33 0 60.5 -23.5t27.5 -71.5v-485h703v580h90q37 0 66.5 -27t29.5 -68v-1298h-63q-43 0 -83 33t-40 104v504h-703v-641h-69q-41 0 -80 32.5t-39 104.5z" />
<glyph unicode="I" horiz-adv-x="538" d="M174 137v1256h90q37 0 69 -27t32 -68v-1298h-68q-53 0 -88 32.5t-35 104.5z" />
<glyph unicode="J" horiz-adv-x="804" d="M10 156v75h10q27 -29 88.5 -52t133.5 -23q117 0 170 59t53 186v992h65q61 0 91 -34t30 -89v-860q0 -205 -103.5 -317.5t-299.5 -112.5q-49 0 -92 13t-76 35.5t-51.5 55.5t-18.5 72z" />
<glyph unicode="K" horiz-adv-x="1173" d="M164 131v1262h55q66 0 98.5 -35t32.5 -94v-529q113 152 221.5 299.5t237.5 284.5q33 35 78 54.5t133 19.5h92v-11q-61 -53 -133 -132t-145.5 -168t-144.5 -179t-132 -168q29 -41 82 -108.5t112.5 -140t116 -141.5t93.5 -107q27 -29 49 -51.5t46.5 -41t52.5 -35t65 -30.5 q-23 -41 -45.5 -65.5t-75.5 -24.5q-51 0 -98.5 20.5t-80.5 55.5q-59 66 -133.5 153.5t-148.5 178.5t-138.5 175t-103.5 140v-713h-69q-47 0 -82 35t-35 96z" />
<glyph unicode="L" horiz-adv-x="1019" d="M164 489v906h67q55 0 87 -29t32 -111v-716q0 -111 13.5 -183.5t49.5 -114.5t96 -58.5t157 -16.5h77q76 0 150 8t123 23v-56q0 -31 -10.5 -58.5t-39 -48t-83 -32.5t-140.5 -12h-116q-244 0 -353.5 128.5t-109.5 370.5z" />
<glyph unicode="M" horiz-adv-x="1845" d="M145 150q0 143 12.5 314t32 340t42 323.5t42.5 265.5h70q68 0 117 -28t86 -72t62.5 -100t43.5 -112l185 -546q23 -70 47 -148t35 -131q16 61 40.5 136t51.5 147l180 501q20 57 45 112.5t49.5 103t47 83t36.5 54.5h49q94 0 138.5 -68t58.5 -197q14 -133 26.5 -279.5 t22.5 -294.5t16.5 -289.5t10.5 -264.5h-70q-63 0 -93 35t-30 115q0 55 -3 135t-7 173t-11.5 193.5t-15.5 195.5t-18 180t-21 149q-25 -45 -53.5 -120t-69.5 -190l-217 -624q-23 -63 -50 -130t-50 -112h-43q-20 0 -44 11.5t-51.5 50t-61 111.5t-72.5 194l-174 526 q-23 72 -57 149.5t-62 131.5q-23 -143 -38 -303t-26.5 -317t-16.5 -300t-7 -254h-56q-51 0 -90 38t-39 112z" />
<glyph unicode="N" horiz-adv-x="1402" d="M164 127v1268h90q123 0 209 -77t147 -202l295 -598q41 -80 76 -155.5t82 -133.5v1164h78q41 0 69.5 -28t28.5 -71v-1294h-57q-47 0 -93.5 15.5t-93.5 56.5t-96 112.5t-104 182.5l-295 596q-43 88 -79 141t-75 90v-1194h-78q-45 0 -74.5 33t-29.5 94z" />
<glyph unicode="O" horiz-adv-x="1486" d="M115 680q0 160 43 295t123.5 232.5t200.5 151.5t274 54q141 0 254.5 -51t194.5 -143.5t125 -221.5t44 -282q0 -160 -43 -295t-124 -232.5t-200.5 -152.5t-273.5 -55q-127 0 -238.5 47t-196.5 137t-134 220t-49 296zM301 715q0 -272 113.5 -417.5t341.5 -145.5 q100 0 181 36.5t136 105t85 167t30 219.5q0 281 -109.5 421t-345.5 140q-199 0 -315.5 -130t-116.5 -396z" />
<glyph unicode="P" horiz-adv-x="1128" d="M164 123v1216q31 12 75 23.5t92 21t97 14.5t90 5h109q104 0 192 -28.5t152.5 -83t100.5 -134.5t36 -182q0 -98 -37 -181t-101.5 -144.5t-151.5 -95.5t-187 -34q-94 0 -166 15.5t-113 44.5v-580h-69q-53 0 -86 30t-33 93zM352 739q57 -31 129 -42t152 -11q143 0 215 71.5 t72 196.5q0 274 -289 275h-107q-35 0 -87 -6t-85 -15v-469z" />
<glyph unicode="Q" horiz-adv-x="1503" d="M111 680q0 156 38.5 290t118.5 232t203 154.5t291 56.5q139 0 252.5 -50t193.5 -141.5t124 -220.5t44 -286q0 -143 -41 -263t-108.5 -209t-156.5 -143.5t-187 -64.5q123 -43 260 -60.5t272 -23.5v-64q0 -37 -28.5 -60.5t-63.5 -23.5q-80 0 -178 15.5t-198.5 43t-197 62.5 t-171.5 76q-111 31 -198 97.5t-146.5 156.5t-91 199.5t-31.5 226.5zM297 715q0 -276 122 -422t343 -146q96 0 175 38t135 109t87 169t31 221q0 289 -109.5 424t-351.5 135q-123 0 -205 -47t-133 -123t-72.5 -170t-21.5 -188z" />
<glyph unicode="R" horiz-adv-x="1224" d="M164 119v1220q31 12 74 23.5t91 21t97 14.5t90 5h125q211 0 333 -100.5t122 -280.5q0 -84 -26 -146.5t-71 -107.5t-103 -71.5t-126 -34.5q53 -16 89 -45t60.5 -63t40 -67.5t27.5 -62.5l127 -299q12 -29 31.5 -61.5t34.5 -49.5v-10q-20 -4 -41 -6q-16 -2 -32.5 -3 t-27.5 -1q-59 0 -95 25.5t-58 78.5l-105 250q-33 76 -61.5 122t-56 70.5t-55 33t-60.5 10.5q-66 4 -133.5 12t-102.5 16v-612h-69q-119 0 -119 119zM352 770q68 -10 130.5 -15t121.5 -5q55 0 109.5 13t97.5 42t69.5 75t26.5 113q0 72 -22.5 119t-61.5 76t-89 40t-107 11 h-105q-74 0 -170 -22v-447z" />
<glyph unicode="S" horiz-adv-x="1185" d="M119 993q0 88 37 165t104.5 134.5t165.5 89t221 31.5q96 0 171 -22.5t125 -59.5t77 -83t27 -93v-84h-11q-66 84 -159 125t-240 41q-154 0 -238 -56.5t-84 -158.5q0 -49 14.5 -84t51.5 -60.5t102.5 -47t169.5 -46.5q74 -16 150 -45.5t138.5 -76t101 -110t38.5 -149.5 t-31.5 -163.5t-96 -135t-164 -91t-232.5 -33.5q-74 0 -148.5 21.5t-135 58t-97.5 87t-37 109.5v90h11q63 -86 174.5 -138t246.5 -52q90 0 150.5 16t97.5 45t52.5 71t15.5 95q0 55 -16.5 94t-57.5 67.5t-111.5 52.5t-177.5 48q-205 45 -305 121.5t-100 226.5z" />
<glyph unicode="T" horiz-adv-x="1071" d="M10 1223v69q0 41 26.5 72t92.5 31h932v-72q0 -14 -8.5 -31.5t-22.5 -33t-33.5 -25.5t-44.5 -10h-327v-1223h-70q-59 0 -90 24.5t-31 94.5v1104h-424z" />
<glyph unicode="U" horiz-adv-x="1400" d="M143 629v764h66q68 0 95.5 -32t27.5 -116v-600q0 -260 90 -375.5t285 -115.5q98 0 167.5 27.5t112.5 85t62.5 147.5t19.5 215v764h72q117 0 116 -138v-610q0 -319 -143 -492t-420 -173q-276 0 -413.5 170t-137.5 479z" />
<glyph unicode="V" horiz-adv-x="1232" d="M47 1393h82q39 0 82 -29t53 -84q20 -104 56 -240.5t83.5 -280t104.5 -282.5t119 -250q57 113 115.5 257.5t110.5 300t93 313t64 295.5h90q35 0 58.5 -22.5t23.5 -51.5t-6 -59q-20 -100 -54.5 -217t-77.5 -239t-91 -242t-96 -227.5t-93 -196.5t-82 -148h-47 q-27 0 -59.5 21.5t-61.5 70.5q-86 143 -158.5 306t-132 333t-104.5 341t-72 331z" />
<glyph unicode="W" horiz-adv-x="1951" d="M78 1393h98q47 0 78 -38t39 -85q41 -242 111.5 -503t175.5 -505q47 123 90 253t79.5 257t67.5 248t53 223q2 10 5.5 28.5t7.5 35.5l8 41h53q35 0 59.5 -6.5t41 -24t27.5 -48t22 -79.5q20 -96 50 -214t66.5 -241t79.5 -244.5t90 -228.5q51 123 99.5 265.5t90.5 291 t72.5 296t45.5 278.5h96q31 0 53.5 -23.5t22.5 -64.5q0 -29 -6.5 -55.5t-10.5 -55.5q-27 -141 -67.5 -291.5t-93 -304.5t-118 -307.5t-141.5 -300.5h-47q-29 0 -51 20.5t-37 44.5q-37 70 -80 171.5t-86 224t-82 264t-69 291.5q-31 -150 -75 -303.5t-91 -291t-92 -248 t-82 -173.5h-41q-39 0 -66.5 24.5t-38.5 40.5q-154 299 -254 631t-153 707z" />
<glyph unicode="X" horiz-adv-x="1316" d="M61 1393h113q14 0 33.5 -5.5t49.5 -29t70 -70.5t95 -129l213 -319q92 100 158.5 181t110.5 147.5t72 120.5t44 104h63q29 0 51.5 -25t22.5 -70q0 -35 -28.5 -92t-84 -134t-136.5 -171t-181 -203l236 -346q76 -111 150.5 -192.5t141.5 -143.5q-23 -16 -48 -24t-70 -8 q-39 0 -74 12t-73 43t-80 84t-97 133l-221 328q-166 -182 -259 -330t-97 -254h-76q-33 0 -54.5 28.5t-21.5 53.5q-2 41 2 62.5t18 58.5q10 27 26.5 59.5t41.5 71.5t60.5 87t89.5 107l178 201l-203 295q-43 63 -82 117.5t-70 99.5t-52.5 82t-31.5 70z" />
<glyph unicode="Y" horiz-adv-x="1132" d="M31 1393h96q100 0 141 -101q53 -129 135 -274.5t185 -292.5q49 70 102 154t103.5 173t92.5 177t70 164h78q41 0 57.5 -20.5t16.5 -55.5q0 -23 -22.5 -73t-58.5 -116.5t-82 -142.5t-95 -150.5t-97 -140t-85 -110.5v-584h-70q-53 0 -86 26.5t-33 86.5v469 q-61 82 -125.5 182t-125 207.5t-111.5 215.5t-86 206z" />
<glyph unicode="Z" horiz-adv-x="1206" d="M113 1223v39q0 61 31.5 96t127.5 35h721q29 0 59.5 -29t30.5 -76q0 -119 -176 -344l-391 -500q-59 -76 -108.5 -145.5t-77.5 -128.5h770v-70q0 -43 -33 -71.5t-86 -28.5h-739q-55 0 -87 29.5t-32 72.5q0 35 11 72t38 83t68 103.5t102 135.5l395 501q51 66 85 125.5 t42 100.5h-751z" />
<glyph unicode="[" horiz-adv-x="655" d="M182 -348v1823h318q53 0 84.5 -29t31.5 -82v-35h-262v-1532h146q53 0 84.5 -28.5t31.5 -79.5v-37h-434z" />
<glyph unicode="\" horiz-adv-x="1003" d="M104 1393h66q51 0 92 -29t57 -66l592 -1298h-45q-63 0 -108 31.5t-68 79.5z" />
<glyph unicode="]" horiz-adv-x="655" d="M35 -203h264v1532h-145q-53 0 -86 28.5t-33 80.5v37h436v-1823h-317q-53 0 -86 28.5t-33 81.5v35z" />
<glyph unicode="^" horiz-adv-x="1005" d="M141 918q0 14 9.5 28.5t13.5 26.5q18 45 51 106.5t73 130t86 137t93 128.5h37q35 0 57.5 -25t38.5 -47q25 -35 61.5 -97.5t75.5 -137t77 -158.5t67 -162q-82 2 -129 28.5t-60 61.5q-8 25 -26.5 64.5t-44 88t-55 103.5t-62.5 111q-66 -111 -134.5 -229t-115.5 -222h-27 q-51 0 -68.5 22t-17.5 42z" />
<glyph unicode="_" horiz-adv-x="1157" d="M0 -410h1157v-174h-1157v174z" />
<glyph unicode="`" horiz-adv-x="1083" d="M252 1497q0 35 21.5 58.5t62.5 23.5q35 0 77 -15.5t95 -68.5q39 -39 83 -90t71 -107v-12h-33q-20 0 -43 2t-51.5 9.5t-65.5 20.5t-86 36q-131 59 -131 143z" />
<glyph unicode="a" horiz-adv-x="1095" d="M115 303q0 178 131 271.5t379 93.5h147v51q0 121 -61.5 173t-196.5 52q-123 0 -212 -42t-136 -107h-10v90q0 37 24.5 78t71.5 74.5t117.5 56t162.5 22.5q211 0 318.5 -105.5t107.5 -305.5v-345q0 -84 -23.5 -153.5t-74.5 -119.5t-132 -78.5t-196 -28.5q-84 0 -159.5 23.5 t-133 65.5t-91 101t-33.5 133zM305 324q0 -72 64.5 -122t171.5 -50q125 0 179 52t54 171v137h-149q-166 0 -243 -48t-77 -140z" />
<glyph unicode="b" horiz-adv-x="1257" d="M143 522v953h88q37 0 70 -30t33 -97v-449q47 102 141 159.5t209 57.5q94 0 178 -36t146.5 -105.5t99.5 -173t37 -236.5q0 -125 -37 -232.5t-104.5 -185t-163 -122.5t-211.5 -45q-115 0 -205 39.5t-152.5 111.5t-95.5 171t-33 220zM334 545q0 -102 23.5 -177t65.5 -122 t100.5 -69.5t129.5 -22.5q68 0 124.5 27.5t95 78.5t60 124t21.5 161q0 111 -24.5 187.5t-67.5 122.5t-101.5 66.5t-125.5 20.5q-66 0 -121 -28.5t-95 -81t-62.5 -126t-22.5 -161.5z" />
<glyph unicode="c" horiz-adv-x="1067" d="M113 535q0 117 38.5 222t109.5 185t171 127t223 47q61 0 115.5 -15.5t95.5 -45t64.5 -74.5t23.5 -104v-78h-10q-14 31 -45 57.5t-68.5 45t-81.5 29.5t-83 11q-82 0 -148.5 -28.5t-115 -79t-74 -120t-25.5 -151.5q0 -109 34 -185.5t86 -126.5t117.5 -73.5t129.5 -23.5 q90 0 161.5 23.5t112.5 72.5h10v-78q0 -27 -16 -59.5t-54 -62.5t-98.5 -50t-148.5 -20q-86 0 -179 36.5t-170 107.5t-126 174.5t-49 236.5z" />
<glyph unicode="d" horiz-adv-x="1253" d="M113 532q0 283 124.5 433.5t354.5 150.5q100 0 186 -49t144 -162v570h49q139 0 139 -152v-743q0 -315 -120 -457.5t-376 -142.5q-102 0 -193 43t-159.5 118.5t-108.5 175.5t-40 215zM301 549q0 -82 24.5 -153.5t67.5 -126t103.5 -85t134.5 -30.5q150 0 219.5 87t69.5 287 q0 74 -13.5 149t-49.5 133t-98.5 95t-160.5 37q-143 0 -220 -103.5t-77 -289.5z" />
<glyph unicode="e" horiz-adv-x="1150" d="M113 526q0 133 38.5 242t107.5 186.5t163 119.5t203 42q80 0 154.5 -28.5t132 -80t92 -121t34.5 -151.5q0 -72 -19.5 -124t-71.5 -84.5t-142 -48t-232 -15.5h-270q14 -137 105.5 -224t244.5 -87q127 0 206 33.5t126 78.5h10v-82q0 -86 -91 -144t-277 -58 q-113 0 -207 40.5t-163 113.5t-106.5 173t-37.5 219zM301 610l248 4q98 2 159.5 8.5t94.5 18.5t44 32.5t11 51.5q0 45 -15.5 85t-47 70.5t-79.5 49t-112 18.5q-68 0 -122 -25.5t-93 -67.5t-61.5 -94t-24.5 -106z" />
<glyph unicode="f" horiz-adv-x="724" d="M164 133v963q0 72 24.5 140.5t71.5 121.5t113.5 85t152.5 32q49 0 86 -12.5t62.5 -33t38 -44t12.5 -44.5v-98h-10q-37 33 -77 44t-87 11q-109 0 -155 -52t-46 -171v-135h326v-68q0 -39 -32 -68.5t-91 -29.5h-205v-774h-69q-61 0 -88 37t-27 96z" />
<glyph unicode="g" horiz-adv-x="1185" d="M111 582q0 100 31.5 196t96 172t163 121t231.5 45q92 0 169 -28.5t131 -87t85 -145.5t31 -204v-301q0 -18 1 -44.5t3 -54.5t3 -53.5t1 -39.5q0 -127 -41 -221.5t-110.5 -156t-165 -91t-201.5 -29.5q-66 0 -127.5 15.5t-109.5 45t-76.5 69.5t-28.5 89v76h14 q57 -53 136 -86t214 -33q68 0 125 19.5t100 57.5t68 96.5t25 137.5q0 23 -5.5 62t-5.5 80v55q-16 -39 -42.5 -75t-63.5 -63.5t-86 -44t-111 -16.5q-96 0 -179 30t-144.5 86t-96 137.5t-34.5 183.5zM299 621q0 -82 21.5 -140.5t59.5 -95.5t91 -53.5t117 -16.5q133 0 206.5 82 t73.5 207q0 178 -65.5 258t-198.5 80q-72 0 -129 -26.5t-96 -71.5t-59.5 -103.5t-20.5 -119.5z" />
<glyph unicode="h" horiz-adv-x="1212" d="M164 121v1354h55q63 0 98 -31t35 -109v-411q59 111 139 151.5t156 40.5q195 0 308.5 -112.5t113.5 -358.5v-645h-49q-74 0 -105.5 29.5t-31.5 91.5v518q0 164 -67.5 232.5t-194.5 68.5q-47 0 -96.5 -19.5t-88.5 -58.5t-63.5 -97t-24.5 -136v-629h-53q-70 0 -100.5 30 t-30.5 91z" />
<glyph unicode="i" horiz-adv-x="649" d="M154 1374q0 53 36.5 91t90.5 38q53 0 89 -38t36 -91t-36 -90t-89 -37t-90 37t-37 90zM182 315v781h58q47 0 88 -37t41 -109v-608q0 -102 46 -141t124 -39h79v-62q0 -53 -29.5 -81.5t-78.5 -28.5q-328 -1 -328 325z" />
<glyph unicode="j" horiz-adv-x="645" d="M-20 -211l114 8q84 6 129 53.5t45 137.5v1108h58q74 0 101.5 -34t27.5 -112v-970q0 -160 -84 -254.5t-244 -94.5q-74 0 -110.5 30t-36.5 65v63zM240 1374q0 53 36.5 91t90.5 38q53 0 89 -38t36 -91t-36 -90t-89 -37t-90 37t-37 90z" />
<glyph unicode="k" horiz-adv-x="1021" d="M143 147v1328h58q123 0 123 -123v-738q49 61 103 124t106.5 120t101.5 107.5t90 87.5q16 16 53 28.5t90 12.5h129v-11q-39 -31 -77.5 -63.5t-94 -85.5t-133.5 -135t-192 -211q72 -96 143.5 -188.5t155.5 -178.5q35 -37 61.5 -60.5t49 -39t42 -23.5t41.5 -14 q-6 -20 -12 -36.5t-18.5 -29t-35 -18.5t-59.5 -6q-47 0 -80.5 15.5t-62.5 45.5q-109 111 -207 235t-194 245v-535h-60q-121 0 -121 147z" />
<glyph unicode="l" horiz-adv-x="655" d="M164 317v1158h57q57 0 94 -36t37 -108v-991q0 -102 47 -139t125 -37h121v-62q0 -111 -149 -110q-162 0 -247 79.5t-85 245.5z" />
<glyph unicode="m" horiz-adv-x="1830" d="M141 137v508q0 94 30 180t86 150.5t139 102.5t192 38q123 0 206 -51t134 -147q53 90 144 144t200 54q205 0 311.5 -122t106.5 -367v-627h-66q-53 0 -88 36t-35 101v484q0 172 -61.5 245.5t-173.5 73.5q-135 0 -195.5 -73.5t-60.5 -239.5v-627h-64q-68 0 -96.5 36 t-28.5 101v484q0 150 -63.5 234.5t-182.5 84.5q-123 0 -184 -76t-61 -243v-621h-60q-59 0 -94 33.5t-35 103.5z" />
<glyph unicode="n" horiz-adv-x="1191" d="M143 127v502q0 115 33 206t94.5 153.5t147.5 95t190 32.5q207 0 324 -118.5t117 -366.5v-631h-68q-117 0 -117 121v504q0 172 -65.5 243.5t-212.5 71.5q-123 0 -190.5 -73.5t-67.5 -241.5v-625h-70q-51 0 -83 30.5t-32 96.5z" />
<glyph unicode="o" horiz-adv-x="1226" d="M113 528q0 135 35.5 244t102 184.5t160 116.5t210.5 41q109 0 199.5 -39t155 -110.5t100.5 -172t36 -223.5q0 -139 -35 -247.5t-99.5 -185.5t-155.5 -116.5t-201 -39.5q-109 0 -202 39.5t-161 112.5t-106.5 173t-38.5 223zM301 567q0 -190 88 -300.5t250 -110.5 q70 0 123 27.5t89 76.5t54.5 117.5t18.5 148.5q0 205 -84 308.5t-246 103.5q-133 0 -213 -99.5t-80 -271.5z" />
<glyph unicode="p" horiz-adv-x="1251" d="M143 -207v725q0 279 131.5 438.5t393.5 159.5q90 0 175 -39t150.5 -110.5t105.5 -172t40 -221.5q0 -141 -38 -250.5t-104.5 -186.5t-155.5 -116.5t-194 -39.5q-47 0 -94 14t-89 38.5t-77 60.5t-55 79v-520h-68q-59 0 -90 31.5t-31 109.5zM328 569q0 -213 94 -314 t246 -101q133 0 207.5 94t74.5 274q0 111 -23.5 191t-66.5 130t-102.5 73.5t-130.5 23.5q-145 0 -222 -100.5t-77 -270.5z" />
<glyph unicode="q" horiz-adv-x="1251" d="M113 532q0 123 40 230.5t110.5 185.5t167.5 123t212 45q106 0 193.5 -36t149 -103.5t94 -166.5t32.5 -228v-930h-74q-57 0 -87.5 36t-30.5 89v405q-16 -43 -49 -79.5t-76 -64.5t-95.5 -43t-109.5 -15q-92 0 -179 37.5t-152.5 108.5t-105.5 174t-40 232zM301 545 q0 -92 24.5 -165t66.5 -123t98.5 -76.5t121.5 -26.5q68 0 125.5 20.5t98.5 68.5t64.5 124.5t23.5 187.5q0 104 -21.5 177t-60.5 120t-93.5 68.5t-121.5 21.5q-76 0 -136.5 -28.5t-102.5 -81t-64.5 -126t-22.5 -161.5z" />
<glyph unicode="r" horiz-adv-x="743" d="M154 125v504q0 229 100 347t260 118q113 0 159 -42t46 -98v-90h-10q-27 23 -70 39.5t-98 16.5t-93 -15.5t-62 -50.5t-35 -93.5t-11 -146.5v-614h-80q-51 0 -78.5 36t-27.5 89z" />
<glyph unicode="s" horiz-adv-x="999" d="M109 772q0 68 29.5 129.5t85 109.5t136 76.5t183.5 28.5q61 0 118.5 -13t101.5 -40t71.5 -66t27.5 -88v-82h-10q-35 43 -117 78t-178 35q-141 0 -200.5 -43t-59.5 -113q0 -29 10 -49t39 -36.5t81 -33t138 -34.5q324 -70 324 -299q0 -86 -32 -151.5t-89 -110.5t-135 -67.5 t-172 -22.5q-70 0 -130.5 15t-105.5 44t-70.5 68.5t-25.5 89.5v79h10q47 -51 133 -86.5t193 -35.5q123 0 178 38.5t55 120.5q0 33 -10 58.5t-41 46t-87 39t-150 39.5q-154 33 -227.5 93t-73.5 183z" />
<glyph unicode="t" horiz-adv-x="765" d="M164 358v713q0 100 47 170q20 29 57 53.5t58 24.5h22v-225h377v-62q0 -51 -35 -81.5t-108 -30.5h-232v-543q0 -117 45 -169t135 -52q51 0 97.5 6t74.5 24h11v-65q0 -70 -51.5 -105.5t-147.5 -35.5q-184 0 -267 94t-83 284z" />
<glyph unicode="u" horiz-adv-x="1191" d="M143 487v609h58q129 0 129 -146v-452q0 -168 75.5 -255t196.5 -87q129 0 194.5 77.5t65.5 255.5v607h51q135 0 136 -146v-479q0 -242 -119 -366.5t-340 -124.5q-100 0 -183 33.5t-141.5 99t-90.5 159.5t-32 215z" />
<glyph unicode="v" horiz-adv-x="1077" d="M49 1096h92q55 0 80 -33t33 -74q37 -188 105.5 -394t197.5 -405q61 92 115.5 216t97.5 252t73.5 244t43.5 194h65q41 0 60.5 -24.5t19.5 -63.5t-8 -79t-14 -63q-23 -94 -66 -217t-98 -246.5t-118.5 -236.5t-127.5 -186h-51q-27 0 -49.5 11t-44.5 42q-158 233 -261.5 510 t-144.5 553z" />
<glyph unicode="w" horiz-adv-x="1687" d="M57 1096h99q51 0 80.5 -33t35.5 -74q29 -178 84.5 -370.5t147.5 -382.5q51 98 94 205.5t77 216t60.5 213t48.5 196.5h60q51 0 82.5 -30.5t42.5 -80.5q37 -172 97 -363.5t148 -356.5q41 80 84 191.5t78 231t60.5 235.5t31.5 202h58q45 0 72.5 -23.5t27.5 -68.5 q0 -33 -2 -74t-8 -72q-27 -121 -67 -241.5t-86 -234.5t-98 -216.5t-103 -183.5h-37q-70 0 -103 55q-37 63 -80 149t-80.5 183.5t-67.5 196t-40 186.5q-16 -86 -49 -194.5t-76 -217.5t-90 -205t-90 -155h-39q-29 0 -53.5 13t-42.5 44q-135 231 -227.5 505.5t-129.5 553.5z " />
<glyph unicode="x" horiz-adv-x="1046" d="M57 1079v17h111q57 0 97 -31t63 -68q16 -29 33.5 -57.5t40 -63t50 -77.5t62.5 -99q49 51 92 100.5t76 94.5q41 59 65.5 109.5t32.5 91.5h49q39 0 64 -29t25 -80q0 -39 -23 -88t-90 -131q-35 -41 -83 -93t-120 -124l207 -289q72 -98 116 -141t76 -60v-14 q-12 -14 -31.5 -35.5t-60.5 -21.5q-33 0 -58.5 5t-48 19.5t-47 39t-57.5 63.5q-59 72 -114.5 154.5t-106.5 158.5q-41 -45 -83 -93t-77.5 -102.5t-60.5 -113t-29 -121.5h-86q-29 0 -52 23.5t-23 64.5q0 33 10 66.5t26 70.5q41 92 121 182.5t160 174.5q-59 92 -109.5 168.5 t-93.5 142.5q-35 53 -63.5 96t-59.5 90z" />
<glyph unicode="y" horiz-adv-x="1087" d="M53 1096h107q57 0 80.5 -36t33.5 -75q18 -82 48 -177t68 -193.5t84 -194.5t97 -180q43 76 92.5 185.5t93.5 228t77.5 235.5t48.5 207h73q37 0 61.5 -17.5t24.5 -66.5q0 -16 -8 -54t-14 -61q-31 -123 -78 -245t-95 -228.5t-90 -190.5l-65 -129q-66 -133 -119 -222 t-103 -142t-101.5 -76.5t-108.5 -23.5q-63 0 -102 29.5t-39 64.5v69h88q33 0 60.5 7.5t58 33t66.5 77.5t83 142q-66 98 -129 222.5t-120.5 259.5t-102.5 275.5t-70 275.5z" />
<glyph unicode="z" horiz-adv-x="1028" d="M82 926v63q0 47 31.5 77t81.5 30h624q45 0 79 -23.5t34 -79.5q0 -59 -40 -123.5t-114 -148.5l-354 -393q-41 -47 -64.5 -82t-46.5 -76h633v-70q0 -45 -34.5 -72.5t-94.5 -27.5h-608q-51 0 -85 28.5t-34 75.5q0 27 7 54.5t25.5 60.5t48.5 72t75 88l372 418 q23 23 51.5 61.5t39.5 67.5h-627z" />
<glyph unicode="{" horiz-adv-x="757" d="M68 557v68l75 12q82 14 111 67.5t29 110.5q0 43 -1 77t-6 81q-2 14 -3 37.5t-2 51.5t-1 54v47q0 72 22.5 129.5t62.5 98.5t92.5 62.5t111.5 21.5q74 0 107.5 -22.5t33.5 -74.5v-39q-45 2 -68 2h-40q-86 0 -125 -58t-39 -169q0 -33 -1 -81t3 -85q4 -35 5 -60.5t1 -66.5 q0 -117 -44 -171t-138 -72v-7q96 -20 139 -89.5t43 -172.5q0 -41 -1 -67.5t-5 -61.5q-4 -37 -3 -85t1 -79q0 -229 164 -229h18q33 0 65 -29.5t32 -68.5v-37h-146q-129 0 -210 81t-81 234q0 41 1 94.5t5 96.5q4 47 6.5 77.5t2.5 73.5q0 72 -36 122t-106 63q-49 10 -62 28.5 t-13 34.5z" />
<glyph unicode="|" horiz-adv-x="526" d="M193 -256v1731h40q31 0 58.5 -20.5t27.5 -61.5v-1741h-43q-29 0 -56 24.5t-27 67.5z" />
<glyph unicode="}" horiz-adv-x="757" d="M53 1438v37h146q129 0 209.5 -81t80.5 -235q0 -41 -1 -94t-5 -96q-4 -47 -6 -79t-2 -73q0 -72 36 -122t105 -62q49 -10 62.5 -28.5t13.5 -35.5v-67l-76 -13q-41 -6 -68.5 -24.5t-43 -43t-21.5 -53t-6 -57.5q0 -43 1 -77.5t5 -79.5q2 -14 3 -38t2 -51.5t1 -54.5v-47 q0 -72 -22.5 -129t-62 -98t-92 -62.5t-111.5 -21.5q-74 0 -108 22.5t-34 73.5v39q43 -2 68 -2h41q86 0 125 58.5t39 168.5q0 33 1 81t-3 85q-4 35 -5 60.5t-1 66.5q0 117 44 171t138 73v6q-96 18 -139 89t-43 173q0 41 1 67.5t5 61.5q4 37 3 84t-1 80q0 229 -164 229h-18 q-35 0 -66 29t-31 70z" />
<glyph unicode="~" horiz-adv-x="1210" d="M168 543q0 63 24.5 109t61.5 74t79 41t79 13q55 0 96 -20.5t88 -48.5q18 -12 43 -24.5t51.5 -24t52 -18.5t45.5 -7q72 0 109 41t45 113h39q18 0 40.5 -20.5t22.5 -74.5q0 -47 -18 -88t-51 -71.5t-79 -48t-101 -17.5q-57 0 -99.5 22.5t-89.5 51.5t-97 46t-85 17 q-61 0 -102 -46t-52 -113h-24q-8 0 -21.5 4t-26 14t-21.5 28.5t-9 47.5z" />
<glyph unicode="&#xa1;" horiz-adv-x="643" d="M170 948q0 63 43 104.5t104 41.5t103.5 -41t42.5 -105q0 -61 -42 -102t-104 -41q-61 0 -104 41t-43 102zM227 -215l27 809h41q111 0 117 -137l26 -807h-88q-55 0 -90 33.5t-33 101.5z" />
<glyph unicode="&#xa2;" d="M139 535q0 104 31 200t89 173t140 129.5t185 70.5v258h53q84 0 84 -76v-176q55 -4 102 -21.5t82 -47t55.5 -71.5t20.5 -97v-78h-10q-14 31 -45 57.5t-69 45t-82 29.5t-83 11q-82 0 -148.5 -28.5t-114.5 -79t-73.5 -120t-25.5 -151.5q0 -109 33.5 -185.5t86 -126.5 t118 -73.5t128.5 -23.5q176 0 258 96h11v-78q0 -23 -9.5 -49.5t-32 -52t-58.5 -47t-91 -33.5q10 0 6 0t-28 -4q-8 -2 -15.5 -2t-15.5 -2v-240h-29q-10 0 -22 2q-86 2 -86 76v164h16q-82 12 -164 54t-148.5 111.5t-107.5 167t-41 218.5z" />
<glyph unicode="&#xa3;" d="M111 608v51q0 94 98 95h102q-12 59 -22 112.5t-10 112.5q0 90 30.5 170t89 138.5t141.5 92t187 33.5q57 0 107.5 -16.5t88.5 -45t59.5 -67.5t21.5 -84v-98h-11q-14 31 -42.5 55.5t-64.5 43t-78 27.5t-81 9q-137 0 -198.5 -68.5t-61.5 -191.5q0 -53 8 -105.5t25 -117.5 h348v-52q0 -49 -32 -71.5t-73 -22.5h-219q8 -41 10.5 -72.5t2.5 -50.5q0 -35 -5.5 -77.5t-16.5 -84.5t-25.5 -81t-32.5 -64v-10h600v-59q0 -49 -34 -79t-97 -30h-748v49q0 27 9.5 49.5t23.5 43t32.5 41t37.5 42.5q35 45 54 102.5t19 133.5q0 29 -6 71.5t-14 75.5h-223z" />
<glyph unicode="&#xa4;" d="M57 506v67q0 33 28 46.5t46 13.5h100q-2 10 -2 20v37v41q0 12 2 25h-174v63q0 27 22.5 45.5t51.5 18.5h107q14 117 62 214t120 167.5t165 109.5t199 39q68 0 125.5 -21.5t98.5 -56.5t64.5 -79t23.5 -91v-61h-11q-18 27 -49.5 51.5t-68.5 44t-77 30.5t-77 11 q-164 0 -265.5 -84t-121.5 -274h475v-54q0 -31 -23.5 -52t-52.5 -21h-409q-2 -14 -2 -25q-2 -10 -2 -20v-21v-20q0 -10 2 -19q0 -10 2 -18h485v-55q0 -25 -20.5 -48.5t-55.5 -23.5h-403q8 -96 42 -163t86 -110t118.5 -62t142.5 -19q72 0 150.5 33.5t123.5 86.5h11v-57 q0 -47 -23.5 -89t-66.5 -75t-103.5 -52t-134.5 -19q-100 0 -191.5 37.5t-163 107.5t-117.5 167t-56 214h-183z" />
<glyph unicode="&#xa5;" d="M57 1393h82q61 0 93 -18.5t44 -47.5q25 -53 60 -114.5t76 -126t86 -128t90 -120.5q43 55 92 121.5t95 139t86 147.5t67 147h82q63 0 63 -56q0 -33 -37 -104.5t-95 -159.5t-129 -182t-138 -170h344v-59q0 -35 -22.5 -59.5t-69.5 -24.5h-262v-191h354v-55 q0 -29 -22.5 -56.5t-69.5 -27.5h-262v-248h-86q-35 0 -65 27.5t-30 81.5v139h-348v65q0 29 22.5 51.5t75.5 22.5h250v191h-348v63q0 29 21.5 54.5t76.5 25.5h242q-59 76 -121.5 165t-119 178t-103.5 174t-74 155z" />
<glyph unicode="&#xa6;" horiz-adv-x="526" d="M193 -256v723h40q31 0 58.5 -20.5t27.5 -61.5v-733h-43q-29 0 -56 24.5t-27 67.5zM193 752v723h40q31 0 58.5 -20.5t27.5 -61.5v-734h-43q-29 0 -56 25t-27 68z" />
<glyph unicode="&#xa7;" d="M162 606q0 37 8 71t30.5 65.5t62.5 61.5t104 54q-76 41 -118 103.5t-42 144.5q0 68 24.5 128t75.5 104t128 70t181 26q61 0 112.5 -18.5t86.5 -47.5t54.5 -65.5t19.5 -73.5v-51h-10q-92 86 -279 86q-102 0 -155.5 -40t-53.5 -94q0 -37 10.5 -63.5t39 -49t77.5 -45 t127 -50.5q72 -27 131.5 -56.5t102.5 -68.5t66.5 -89.5t23.5 -113.5q0 -78 -41 -142.5t-140 -107.5q84 -59 114 -117.5t30 -117.5q0 -182 -107.5 -271.5t-314.5 -89.5q-68 0 -123 18.5t-95 48t-62.5 67.5t-22.5 77v76h10q57 -51 131 -81t172 -30q43 0 84 7.5t72 25.5t49 49 t18 78q0 39 -15 65.5t-54 51t-106.5 51.5t-174.5 63q-66 23 -110.5 54.5t-71.5 68.5t-38 80t-11 88zM322 659q0 -72 43 -117.5t131 -76.5q57 -20 105 -37.5t118 -46.5q43 35 62.5 76t19.5 96q0 66 -40 106.5t-122 69.5q-31 12 -55.5 21.5t-48 20.5t-49 22.5t-60.5 27.5 q-45 -35 -74.5 -75t-29.5 -87z" />
<glyph unicode="&#xa8;" horiz-adv-x="1019" d="M147 1393q0 51 37 87t88 36t87 -36t36 -87t-35.5 -88t-87.5 -37q-51 0 -88 37t-37 88zM573 1393q0 51 36 87t87 36t88 -36t37 -87t-36.5 -88t-88.5 -37q-51 0 -87 37t-36 88z" />
<glyph unicode="&#xa9;" horiz-adv-x="1650" d="M111 700q0 145 55 274.5t150.5 224.5t224.5 150.5t274 55.5t274.5 -55.5t224.5 -150.5t150.5 -224t55.5 -275q0 -145 -55.5 -274t-150.5 -224.5t-224 -150.5t-275 -55q-145 0 -274 55t-224.5 150.5t-150.5 224.5t-55 274zM246 700q0 -117 45 -221t121.5 -181t181 -122 t221.5 -45t221.5 45t181 122t121.5 181.5t45 220.5q0 117 -45 221.5t-121.5 181.5t-181 122t-221.5 45t-221.5 -45t-181 -122t-121.5 -181.5t-45 -221.5zM479 698q0 94 28 172t78 133.5t121.5 86t159.5 30.5q102 0 164 -55t62 -133v-62h-15q-16 43 -69.5 80t-135.5 37 q-61 0 -105 -21.5t-72.5 -57.5t-42 -84t-13.5 -103q0 -143 66.5 -215t166.5 -72q68 0 121.5 22.5t81.5 57.5h12v-55q0 -41 -22.5 -71t-57 -50.5t-75.5 -30.5t-78 -10q-78 0 -146.5 30.5t-119.5 85t-80 127t-29 158.5z" />
<glyph unicode="&#xaa;" horiz-adv-x="837" d="M102 903q0 47 16.5 88t54.5 71t101.5 47t157.5 17h92v37q0 59 -34.5 89t-129.5 30q-76 0 -134 -23.5t-87 -52.5h-8v45q0 29 15.5 59.5t47 55.5t80 41t113.5 16q147 0 216 -74.5t69 -246.5v-168q0 -115 -71 -185.5t-181 -70.5h-53q-121 0 -193 63.5t-72 161.5zM262 909 q0 -96 121 -96q57 0 96 27.5t39 91.5v78h-86q-98 0 -134 -25t-36 -76z" />
<glyph unicode="&#xab;" horiz-adv-x="923" d="M43 539l199 299q27 41 70.5 64.5t136.5 23.5h28l-241 -387l241 -389h-28q-84 0 -130.5 22.5t-76.5 69.5zM449 539l178 299q25 41 68.5 64.5t138.5 23.5h28l-221 -387l221 -389h-28q-84 0 -131.5 22.5t-75.5 69.5z" />
<glyph unicode="&#xac;" horiz-adv-x="1196" d="M76 653v168h1042v-600h-168v432h-874z" />
<glyph unicode="&#xad;" horiz-adv-x="722" d="M111 549v61q0 45 32.5 78t81.5 33h389v-55q0 -47 -28.5 -82t-75.5 -35h-399z" />
<glyph unicode="&#xae;" horiz-adv-x="1650" d="M111 700q0 145 55 274.5t150.5 224.5t224.5 150.5t274 55.5t274.5 -55.5t224.5 -150.5t150.5 -224t55.5 -275q0 -145 -55.5 -274t-150.5 -224.5t-224 -150.5t-275 -55q-145 0 -274 55t-224.5 150.5t-150.5 224.5t-55 274zM246 700q0 -117 45 -221t121.5 -181t181 -122 t221.5 -45t221.5 45t181 122t121.5 181.5t45 220.5q0 117 -45 221.5t-121.5 181.5t-181 122t-221.5 45t-221.5 -45t-181 -122t-121.5 -181.5t-45 -221.5zM537 418v667q45 14 101 22.5t97 8.5h88q115 0 184.5 -62.5t69.5 -174.5q0 -63 -35.5 -117.5t-126.5 -77.5 q23 -12 42.5 -31.5t34 -41t23.5 -41t15 -29.5q18 -37 29.5 -75t30.5 -71q4 -10 10 -17t12 -18l16 -22q-23 -18 -33 -22.5t-38 -4.5q-66 0 -96.5 38t-53.5 93q-10 27 -21.5 57.5t-26.5 57.5t-37.5 45.5t-55.5 24.5q-14 4 -28.5 4t-43.5 4v-324h-57q-59 0 -79.5 30t-20.5 77z M694 758q37 -4 61 -4h48q45 0 81 28.5t36 83.5q0 74 -34 99.5t-81 25.5h-45q-6 0 -21.5 -2t-44.5 -6v-225z" />
<glyph unicode="&#xaf;" horiz-adv-x="675" d="M113 1286v66q0 41 32.5 73.5t94.5 32.5h323v-74q0 -45 -28.5 -71.5t-81.5 -26.5h-340z" />
<glyph unicode="&#x2c9;" horiz-adv-x="675" d="M113 1286v66q0 41 32.5 73.5t94.5 32.5h323v-74q0 -45 -28.5 -71.5t-81.5 -26.5h-340z" />
<glyph unicode="&#xb0;" horiz-adv-x="849" d="M135 1106q0 63 19.5 119.5t56.5 98.5t91 65.5t126 23.5q141 0 215 -85t74 -218q0 -63 -20.5 -118.5t-57.5 -95.5t-90 -63.5t-121 -23.5q-70 0 -124 23.5t-92 63.5t-57.5 94.5t-19.5 115.5zM262 1106q0 -31 10.5 -63.5t32 -59.5t51 -44t70.5 -17t72.5 16t53 42t32 59.5 t10.5 70.5q0 35 -10.5 68.5t-31 61.5t-52 44t-72.5 16t-72.5 -17t-52 -45t-31 -62.5t-10.5 -69.5z" />
<glyph unicode="&#xb1;" d="M100 788v74q0 27 22.5 53.5t65.5 26.5h344v391h70q25 0 49.5 -24.5t24.5 -71.5v-295h424v-57q0 -31 -28 -64t-93 -33h-303v-413h-53q-29 0 -60 22.5t-31 87.5v303h-432zM127 -2v65q0 43 28.5 66t77.5 23h828v-72q0 -33 -27.5 -57.5t-62.5 -24.5h-844z" />
<glyph unicode="&#xb2;" horiz-adv-x="827" d="M115 616q0 20 6 43t24.5 50.5t50 61.5t83.5 77l202 170q35 29 47.5 58.5t12.5 58.5q0 59 -40 93t-112 34q-96 0 -155.5 -27t-100.5 -86h-6v63q0 37 15.5 74t50 65.5t91 46t138.5 17.5q63 0 116.5 -20.5t92.5 -56t60.5 -83t21.5 -98.5q0 -49 -10.5 -86t-32 -69.5 t-56 -64.5t-84.5 -71l-135 -106q-23 -16 -47 -41t-35 -41h408v-64q0 -41 -32 -62.5t-85 -21.5h-403q-37 0 -62.5 24.5t-23.5 61.5z" />
<glyph unicode="&#xb3;" horiz-adv-x="843" d="M115 666v69h6q41 -45 104.5 -70.5t155.5 -25.5q90 0 128 35t38 86q0 66 -42 92.5t-126 28.5q-59 2 -84 18t-25 51v58q18 4 43 4t54 2q100 4 138 36.5t38 79.5q0 59 -42 94.5t-134 35.5q-74 0 -139.5 -25t-100.5 -72h-6v78q0 27 17.5 57.5t52 56t87 42t119.5 16.5 q147 0 234.5 -68.5t87.5 -181.5q0 -98 -46 -145t-114 -64q29 -6 58.5 -23.5t53 -43t39 -57t15.5 -64.5q0 -129 -88 -206t-264 -77q-53 0 -100.5 11.5t-82 34t-55 56.5t-20.5 81z" />
<glyph unicode="&#xb4;" horiz-adv-x="1083" d="M317 1286v12q27 55 71 106.5t83 90.5q53 53 95 68.5t77 15.5q41 0 62.5 -23.5t21.5 -58.5q0 -84 -131 -143q-98 -45 -152.5 -56.5t-93.5 -11.5h-33z" />
<glyph unicode="&#xb5;" d="M162 -166v1282h100q37 0 62.5 -33.5t25.5 -70.5v-506q0 -88 21.5 -153.5t60.5 -109.5t89 -65.5t110 -21.5q111 0 182.5 84t71.5 245v631h86q43 0 72.5 -30.5t29.5 -73.5v-504q0 -129 -32.5 -224.5t-89 -158t-131.5 -94t-158 -31.5q-47 0 -93.5 9t-87.5 30.5t-75.5 56.5 t-55.5 88v-487h-65q-59 0 -91 32.5t-32 104.5z" />
<glyph unicode="&#x3bc;" d="M162 -166v1282h100q37 0 62.5 -33.5t25.5 -70.5v-506q0 -88 21.5 -153.5t60.5 -109.5t89 -65.5t110 -21.5q111 0 182.5 84t71.5 245v631h86q43 0 72.5 -30.5t29.5 -73.5v-504q0 -129 -32.5 -224.5t-89 -158t-131.5 -94t-158 -31.5q-47 0 -93.5 9t-87.5 30.5t-75.5 56.5 t-55.5 88v-487h-65q-59 0 -91 32.5t-32 104.5z" />
<glyph unicode="&#xb6;" horiz-adv-x="1087" d="M80 995q0 203 135 321t401 118q145 0 224.5 -52.5t79.5 -150.5v-1251h-43q-53 0 -78 20t-25 84v1122q0 55 -25.5 72.5t-72.5 17.5h-84v-1316h-45q-47 2 -74 26.5t-27 77.5v520h-34q-70 0 -130.5 33t-105.5 88t-70.5 125.5t-25.5 144.5z" />
<glyph unicode="&#xb7;" horiz-adv-x="512" d="M123 588q0 55 39 93t94 38t93 -38t38 -93t-38 -94t-93 -39t-94 39t-39 94z" />
<glyph unicode="&#x2219;" horiz-adv-x="512" d="M123 588q0 55 39 93t94 38t93 -38t38 -93t-38 -94t-93 -39t-94 39t-39 94z" />
<glyph unicode="&#xb8;" horiz-adv-x="1189" d="M418 -270h6h4q29 -27 84 -38t98 -11q66 0 91.5 11t25.5 48q0 33 -24.5 45t-84.5 12q-27 0 -54 -1t-50 -5q6 23 14.5 56.5t18.5 68.5q10 39 22 84h101l-11 -102q217 0 218 -152q0 -53 -21.5 -88t-57.5 -56.5t-81 -29.5t-92 -8q-27 0 -63 3t-67.5 15t-54 36t-22.5 65v47z " />
<glyph unicode="&#xb9;" horiz-adv-x="677" d="M90 1294l162 72q68 31 100.5 39t67.5 8q45 0 70.5 -29.5t25.5 -64.5v-799h-72q-45 0 -75.5 29t-30.5 88v592l-86 -31q-66 -25 -106 -7.5t-48 58.5z" />
<glyph unicode="&#xba;" horiz-adv-x="837" d="M100 1036q0 82 21.5 151.5t62.5 122t101.5 82t140.5 29.5q74 0 132 -29.5t98 -78.5t61.5 -114.5t21.5 -137.5q0 -82 -21.5 -151.5t-62.5 -121t-102 -81t-141 -29.5q-74 0 -132.5 29.5t-98.5 79t-60.5 113.5t-20.5 136zM260 1061q0 -111 39 -173.5t127 -62.5 q78 0 116 59.5t38 151.5q0 111 -40 174.5t-128 63.5q-78 0 -115 -60.5t-37 -152.5z" />
<glyph unicode="&#xbb;" horiz-adv-x="923" d="M63 150l222 389l-222 387h29q94 0 138 -23.5t69 -64.5l178 -299l-178 -297q-29 -47 -76 -69.5t-131 -22.5h-29zM449 150l241 389l-241 387h28q92 0 136 -23.5t71 -64.5l199 -299l-199 -297q-31 -47 -77 -69.5t-130 -22.5h-28z" />
<glyph unicode="&#xbc;" horiz-adv-x="1843" d="M90 1294l162 72q68 31 100.5 39t67.5 8q45 0 70.5 -29.5t25.5 -64.5v-799h-72q-45 0 -75.5 29t-30.5 88v592l-86 -31q-66 -25 -106 -7.5t-48 58.5zM508 76q0 16 4 37.5t16 46.5l576 1235h41q29 0 50.5 -21.5t21.5 -48.5t-11 -47l-592 -1278h-43q-16 0 -39.5 17.5 t-23.5 58.5zM1051 293q0 39 6 60.5t16 37.5q23 43 68 112.5t99 144.5t110.5 143.5t103.5 105.5h59q47 0 77 -30.5t30 -94.5v-412h147v-71q0 -35 -18 -55.5t-55 -20.5h-74v-213h-64q-47 0 -75.5 28.5t-28.5 86.5v98h-303q-45 0 -71.5 24.5t-26.5 55.5zM1214 360h238v355 q-23 -31 -55.5 -76t-66.5 -95t-65 -98.5t-51 -85.5z" />
<glyph unicode="&#xbd;" horiz-adv-x="1843" d="M90 1294l162 72q68 31 100.5 39t67.5 8q45 0 70.5 -29.5t25.5 -64.5v-799h-72q-45 0 -75.5 29t-30.5 88v592l-86 -31q-66 -25 -106 -7.5t-48 58.5zM508 76q0 16 4 37.5t16 46.5l576 1235h41q29 0 50.5 -21.5t21.5 -48.5t-11 -47l-592 -1278h-43q-16 0 -39.5 17.5 t-23.5 58.5zM1096 86q0 20 7 44t25.5 51.5t50 61t81.5 76.5l204 168q35 29 47.5 58.5t12.5 58.5q0 59 -40 94t-112 35q-96 0 -155.5 -27.5t-100.5 -84.5h-6v61q0 39 15.5 75t50 64.5t91 46t138.5 17.5q61 0 114.5 -20.5t92.5 -55.5t61.5 -82t22.5 -100q0 -49 -10.5 -86 t-32 -69t-56 -64.5t-84.5 -71.5l-135 -105q-23 -16 -47 -40.5t-35 -40.5h408v-64q0 -41 -32 -63.5t-85 -22.5h-403q-37 0 -62.5 25.5t-25.5 60.5z" />
<glyph unicode="&#xbe;" horiz-adv-x="1843" d="M115 666v69h6q41 -45 104.5 -70.5t155.5 -25.5q90 0 128 35t38 86q0 66 -42 92.5t-126 28.5q-59 2 -84 18t-25 51v58q18 4 43 4t54 2q100 4 138 36.5t38 79.5q0 59 -42 94.5t-134 35.5q-74 0 -139.5 -25t-100.5 -72h-6v78q0 27 17.5 57.5t52 56t87 42t119.5 16.5 q147 0 234.5 -68.5t87.5 -181.5q0 -98 -46 -145t-114 -64q29 -6 58.5 -23.5t53 -43t39 -57t15.5 -64.5q0 -129 -88 -206t-264 -77q-53 0 -100.5 11.5t-82 34t-55 56.5t-20.5 81zM590 76q0 16 4 37.5t16 46.5l576 1235h41q29 0 50 -21.5t21 -48.5t-10 -47l-592 -1278h-43 q-16 0 -39.5 17.5t-23.5 58.5zM1051 293q0 39 6 60.5t16 37.5q23 43 68 112.5t99 144.5t110.5 143.5t103.5 105.5h59q47 0 77 -30.5t30 -94.5v-412h147v-71q0 -35 -18 -55.5t-55 -20.5h-74v-213h-64q-47 0 -75.5 28.5t-28.5 86.5v98h-303q-45 0 -71.5 24.5t-26.5 55.5z M1214 360h238v355q-23 -31 -55.5 -76t-66.5 -95t-65 -98.5t-51 -85.5z" />
<glyph unicode="&#xbf;" horiz-adv-x="966" d="M100 -33q0 92 39 161t111 134l176 158q33 29 45 65.5t12 96.5v59h70q25 0 55.5 -31.5t30.5 -79.5q0 -72 -33 -127t-63 -84l-150 -133q-31 -29 -51 -50t-31.5 -42.5t-16.5 -46t-5 -57.5q0 -92 69.5 -139.5t182.5 -47.5q76 0 129 16.5t90 43t62.5 56.5t45.5 58h13v-63 q0 -47 -20.5 -97t-65.5 -91t-117 -67t-172 -26t-176 27t-127 73t-77 106t-26 128zM391 948q0 63 43 104.5t105 41.5q59 0 102 -41t43 -105q0 -61 -43 -102t-102 -41q-61 0 -104.5 41t-43.5 102z" />
<glyph unicode="&#xc0;" horiz-adv-x="1222" d="M45 90q0 47 21.5 144.5t58.5 220.5t85 260t103.5 266t112.5 237.5t111 174.5h61q59 0 101 -39t87 -117q31 -53 69 -135t78 -181.5t80 -214t74.5 -233.5t64.5 -239.5t46 -233.5h-68q-59 0 -88.5 25.5t-40.5 72.5q-14 72 -33.5 145.5t-31.5 125.5h-651q-10 -39 -21.5 -85 t-23 -95.5t-21.5 -97.5t-18 -91h-72q-84 0 -84 90zM279 1755q0 35 21.5 58.5t61.5 23.5q35 0 77 -15.5t96 -68.5q39 -39 83 -90t70 -107v-12h-33q-20 0 -42.5 2t-51.5 9.5t-65.5 20.5t-85.5 36q-131 59 -131 143zM328 518h561q-55 199 -122 370t-159 337q-49 -88 -89 -173 t-73.5 -171t-62 -176.5t-55.5 -186.5z" />
<glyph unicode="&#xc1;" horiz-adv-x="1222" d="M45 90q0 47 21.5 144.5t58.5 220.5t85 260t103.5 266t112.5 237.5t111 174.5h61q59 0 101 -39t87 -117q31 -53 69 -135t78 -181.5t80 -214t74.5 -233.5t64.5 -239.5t46 -233.5h-68q-59 0 -88.5 25.5t-40.5 72.5q-14 72 -33.5 145.5t-31.5 125.5h-651q-10 -39 -21.5 -85 t-23 -95.5t-21.5 -97.5t-18 -91h-72q-84 0 -84 90zM328 518h561q-55 199 -122 370t-159 337q-49 -88 -89 -173t-73.5 -171t-62 -176.5t-55.5 -186.5zM518 1540v12q27 55 71 106.5t83 90.5q53 53 95 68.5t77 15.5q41 0 62.5 -23.5t21.5 -58.5q0 -84 -131 -143 q-98 -45 -152.5 -56.5t-93.5 -11.5h-33z" />
<glyph unicode="&#xc2;" horiz-adv-x="1222" d="M45 90q0 47 21.5 144.5t58.5 220.5t85 260t103.5 266t112.5 237.5t111 174.5h61q59 0 101 -39t87 -117q31 -53 69 -135t78 -181.5t80 -214t74.5 -233.5t64.5 -239.5t46 -233.5h-68q-59 0 -88.5 25.5t-40.5 72.5q-14 72 -33.5 145.5t-31.5 125.5h-651q-10 -39 -21.5 -85 t-23 -95.5t-21.5 -97.5t-18 -91h-72q-84 0 -84 90zM283 1464v82q0 80 65 117l244 141l239 -139q35 -20 53.5 -48t18.5 -71v-82l-313 160zM328 518h561q-55 199 -122 370t-159 337q-49 -88 -89 -173t-73.5 -171t-62 -176.5t-55.5 -186.5z" />
<glyph unicode="&#xc3;" horiz-adv-x="1222" d="M45 90q0 47 21.5 144.5t58.5 220.5t85 260t103.5 266t112.5 237.5t111 174.5h61q59 0 101 -39t87 -117q31 -53 69 -135t78 -181.5t80 -214t74.5 -233.5t64.5 -239.5t46 -233.5h-68q-59 0 -88.5 25.5t-40.5 72.5q-14 72 -33.5 145.5t-31.5 125.5h-651q-10 -39 -21.5 -85 t-23 -95.5t-21.5 -97.5t-18 -91h-72q-84 0 -84 90zM281 1614q0 53 18 92t48 63.5t64.5 36t67.5 11.5t71 -17.5t66 -46.5q35 -35 59.5 -56.5t53.5 -21.5q84 0 84 144h59q18 0 41 -21.5t23 -64.5q0 -94 -59.5 -147.5t-147.5 -53.5q-35 0 -76 22.5t-67 51.5q-29 29 -54.5 48 t-48.5 19q-43 0 -62.5 -38t-19.5 -105h-57q-16 0 -39.5 20.5t-23.5 63.5zM328 518h561q-55 199 -122 370t-159 337q-49 -88 -89 -173t-73.5 -171t-62 -176.5t-55.5 -186.5z" />
<glyph unicode="&#xc4;" horiz-adv-x="1222" d="M45 90q0 47 21.5 144.5t58.5 220.5t85 260t103.5 266t112.5 237.5t111 174.5h61q59 0 101 -39t87 -117q31 -53 69 -135t78 -181.5t80 -214t74.5 -233.5t64.5 -239.5t46 -233.5h-68q-59 0 -88.5 25.5t-40.5 72.5q-14 72 -33.5 145.5t-31.5 125.5h-651q-10 -39 -21.5 -85 t-23 -95.5t-21.5 -97.5t-18 -91h-72q-84 0 -84 90zM256 1669q0 51 37 87t88 36t87 -36t36 -87t-36 -88t-87 -37t-88 37t-37 88zM328 518h561q-55 199 -122 370t-159 337q-49 -88 -89 -173t-73.5 -171t-62 -176.5t-55.5 -186.5zM682 1669q0 51 36 87t87 36t88 -36t37 -87 t-37 -88t-88 -37t-87 37t-36 88z" />
<glyph unicode="&#xc5;" horiz-adv-x="1222" d="M37 90q0 43 18.5 127t49 190.5t72.5 228.5t90 241.5t99.5 229.5t102.5 191q-45 29 -67.5 75t-22.5 100q0 43 13.5 80.5t40 67.5t68.5 47.5t97 17.5q111 0 164 -63.5t53 -149.5q0 -106 -80 -168q18 -20 45 -68q31 -53 69 -135t78 -181.5t80 -214t74.5 -233.5t64.5 -239.5 t46 -233.5h-72q-59 0 -91 27.5t-38 70.5q-10 72 -29.5 145.5t-31.5 125.5h-651q-10 -39 -21.5 -85t-23 -95.5t-21.5 -97.5t-18 -91h-74q-84 0 -84 90zM322 518h561q-51 199 -120 370t-161 337q-49 -88 -89 -173t-73.5 -171t-62 -176.5t-55.5 -186.5zM510 1473 q0 -41 25.5 -71t60.5 -30q39 0 65.5 26.5t26.5 74.5q0 45 -25.5 74.5t-64.5 29.5t-63.5 -29.5t-24.5 -74.5z" />
<glyph unicode="&#xc6;" horiz-adv-x="1771" d="M31 66v19q0 9 2 21q6 51 37.5 147.5t80 217.5t110 256t128 261t135 232.5t129.5 172.5h1055v-64q0 -47 -38 -77.5t-116 -30.5h-639q23 -106 41.5 -212t32.5 -210h572v-68q0 -49 -28 -73.5t-106 -24.5h-421l22 -184q10 -84 29.5 -140.5t54.5 -91.5t87 -49t126 -14h117 q47 0 84 3t67.5 8t58 13t58.5 19v-56q0 -41 -12 -70.5t-43 -49t-83 -29.5t-130 -10h-131q-215 0 -322.5 96t-130.5 303h-553q-41 -104 -68.5 -196.5t-56.5 -184.5h-80q-41 0 -55 17.5t-14 48.5zM373 530h461q-4 55 -16.5 148.5t-28 196t-34 199.5t-32.5 159 q-115 -168 -196.5 -339t-153.5 -364z" />
<glyph unicode="&#xc7;" horiz-adv-x="1210" d="M113 700q0 137 46 266.5t134 228.5t216 158.5t292 59.5q86 0 152.5 -23.5t112.5 -61.5t69.5 -84t23.5 -89v-72h-14q-59 88 -153.5 122t-188.5 34q-113 0 -205 -38t-158.5 -105.5t-102.5 -160.5t-36 -204q0 -143 39 -251.5t108.5 -180.5t161.5 -108.5t201 -36.5 q111 0 193.5 35.5t140.5 101.5h10v-58q0 -49 -25.5 -96t-73.5 -82t-119 -55t-163 -20h-16l-8 -82q217 0 217 -152q0 -53 -21.5 -88t-57.5 -56.5t-81 -29.5t-92 -8q-27 0 -63 3t-67.5 15t-53 36t-21.5 65v47q41 -29 93 -39t99 -10q66 0 90.5 11t24.5 48q0 33 -23.5 45 t-84.5 12q-27 0 -54.5 -1t-50.5 -5q10 33 26.5 93.5t26.5 105.5q-117 20 -216 80.5t-171.5 152.5t-114.5 213t-42 264z" />
<glyph unicode="&#xc8;" horiz-adv-x="1146" d="M133 569v252q0 45 4 95.5t10.5 100.5t14.5 97t18 84q25 102 66 148.5t110 46.5h727v-76q0 -37 -28.5 -66.5t-106.5 -29.5h-577q-23 -86 -36 -200t-13 -224h604v-60q0 -41 -29 -70.5t-92 -29.5h-483v-102q0 -104 20 -176t66.5 -116t118 -63.5t175.5 -19.5h107 q78 0 145.5 12t116.5 27v-54q0 -37 -8 -65.5t-36 -48t-79 -30.5t-137 -11h-172q-262 0 -384 146t-122 433zM354 1755q0 35 21.5 58.5t62.5 23.5q35 0 77 -15.5t95 -68.5q39 -39 83 -90t71 -107v-12h-33q-20 0 -42.5 2t-51.5 9.5t-65.5 20.5t-86.5 36q-131 59 -131 143z" />
<glyph unicode="&#xc9;" horiz-adv-x="1146" d="M133 569v252q0 45 4 95.5t10.5 100.5t14.5 97t18 84q25 102 66 148.5t110 46.5h727v-76q0 -37 -28.5 -66.5t-106.5 -29.5h-577q-23 -86 -36 -200t-13 -224h604v-60q0 -41 -29 -70.5t-92 -29.5h-483v-102q0 -104 20 -176t66.5 -116t118 -63.5t175.5 -19.5h107 q78 0 145.5 12t116.5 27v-54q0 -37 -8 -65.5t-36 -48t-79 -30.5t-137 -11h-172q-262 0 -384 146t-122 433zM522 1544v12q27 55 71 106.5t83 90.5q53 53 95 68.5t77 15.5q41 0 62.5 -23.5t21.5 -58.5q0 -84 -131 -143q-98 -45 -152.5 -56.5t-93.5 -11.5h-33z" />
<glyph unicode="&#xca;" horiz-adv-x="1146" d="M133 569v252q0 45 4 95.5t10.5 100.5t14.5 97t18 84q25 102 66 148.5t110 46.5h727v-76q0 -37 -28.5 -66.5t-106.5 -29.5h-577q-23 -86 -36 -200t-13 -224h604v-60q0 -41 -29 -70.5t-92 -29.5h-483v-102q0 -104 20 -176t66.5 -116t118 -63.5t175.5 -19.5h107 q78 0 145.5 12t116.5 27v-54q0 -37 -8 -65.5t-36 -48t-79 -30.5t-137 -11h-172q-262 0 -384 146t-122 433zM311 1475v81q0 80 66 117l244 142l239 -140q35 -20 53.5 -48t18.5 -71v-81l-314 159z" />
<glyph unicode="&#xcb;" horiz-adv-x="1146" d="M133 569v252q0 45 4 95.5t10.5 100.5t14.5 97t18 84q25 102 66 148.5t110 46.5h727v-76q0 -37 -28.5 -66.5t-106.5 -29.5h-577q-23 -86 -36 -200t-13 -224h604v-60q0 -41 -29 -70.5t-92 -29.5h-483v-102q0 -104 20 -176t66.5 -116t118 -63.5t175.5 -19.5h107 q78 0 145.5 12t116.5 27v-54q0 -37 -8 -65.5t-36 -48t-79 -30.5t-137 -11h-172q-262 0 -384 146t-122 433zM270 1669q0 51 37 87t88 36t87 -36t36 -87t-36 -88t-87 -37t-88 37t-37 88zM696 1669q0 51 36 87t87 36t88 -36t37 -87t-37 -88t-88 -37t-87 37t-36 88z" />
<glyph unicode="&#xcc;" horiz-adv-x="538" d="M-27 1755q0 35 21.5 58.5t62.5 23.5q35 0 77 -15.5t95 -68.5q39 -39 83 -90t71 -107v-12h-33q-20 0 -42.5 2t-51.5 9.5t-65.5 20.5t-86.5 36q-131 59 -131 143zM174 137v1256h90q37 0 69 -27t32 -68v-1298h-68q-53 0 -88 32.5t-35 104.5z" />
<glyph unicode="&#xcd;" horiz-adv-x="538" d="M147 1544v12q27 55 71 106.5t83 90.5q53 53 95 68.5t77 15.5q41 0 62.5 -23.5t21.5 -58.5q0 -84 -131 -143q-98 -45 -152.5 -56.5t-93.5 -11.5h-33zM174 137v1256h90q37 0 69 -27t32 -68v-1298h-68q-53 0 -88 32.5t-35 104.5z" />
<glyph unicode="&#xce;" horiz-adv-x="538" d="M-39 1473v81q0 80 66 117l243 141l240 -139q35 -20 53.5 -48t18.5 -71v-81l-314 159zM174 137v1256h90q37 0 69 -27t32 -68v-1298h-68q-53 0 -88 32.5t-35 104.5z" />
<glyph unicode="&#xcf;" horiz-adv-x="538" d="M-98 1669q0 51 36.5 87t88.5 36q51 0 87 -36t36 -87t-36 -88t-87 -37t-88 37t-37 88zM174 137v1256h90q37 0 69 -27t32 -68v-1298h-68q-53 0 -88 32.5t-35 104.5zM328 1669q0 51 35.5 87t87.5 36q51 0 87.5 -36t36.5 -87t-36.5 -88t-87.5 -37t-87 37t-36 88z" />
<glyph unicode="&#xd0;" horiz-adv-x="1372" d="M-16 639v72q0 29 24.5 48t69.5 19h76v584q29 8 68.5 15t82.5 13.5t84 9.5t76 3h174q125 0 238.5 -49t197.5 -139.5t134.5 -218.5t50.5 -285q0 -162 -46.5 -295t-129.5 -227.5t-197.5 -146.5t-251.5 -52h-125q-178 0 -267 81t-89 216v352h-170zM342 338q0 -96 49 -138 t148 -42h75q109 0 194 37.5t143.5 107.5t89 166t30.5 213q0 281 -128 417t-349 136h-80q-35 0 -84 -5t-88 -13v-439h301v-65q0 -31 -25.5 -52.5t-72.5 -21.5h-203v-301z" />
<glyph unicode="&#xd1;" horiz-adv-x="1402" d="M164 127v1268h90q123 0 209 -77t147 -202l295 -598q41 -80 76 -155.5t82 -133.5v1164h78q41 0 69.5 -28t28.5 -71v-1294h-57q-47 0 -93.5 15.5t-93.5 56.5t-96 112.5t-104 182.5l-295 596q-43 88 -79 141t-75 90v-1194h-78q-45 0 -74.5 33t-29.5 94zM358 1616 q0 53 18.5 92t48.5 63.5t64.5 36t67.5 11.5t71 -17.5t66 -46.5q35 -35 59.5 -56.5t53.5 -21.5q84 0 84 144h59q18 0 41 -21.5t23 -64.5q0 -94 -59.5 -147.5t-147.5 -53.5q-35 0 -76 22.5t-67 51.5q-29 29 -54.5 48t-48.5 19q-43 0 -62.5 -38t-19.5 -105h-57q-16 0 -40 20.5 t-24 63.5z" />
<glyph unicode="&#xd2;" horiz-adv-x="1486" d="M115 680q0 160 43 295t123.5 232.5t200.5 151.5t274 54q141 0 254.5 -51t194.5 -143.5t125 -221.5t44 -282q0 -160 -43 -295t-124 -232.5t-200.5 -152.5t-273.5 -55q-127 0 -238.5 47t-196.5 137t-134 220t-49 296zM301 715q0 -272 113.5 -417.5t341.5 -145.5 q100 0 181 36.5t136 105t85 167t30 219.5q0 281 -109.5 421t-345.5 140q-199 0 -315.5 -130t-116.5 -396zM395 1755q0 35 21.5 58.5t62.5 23.5q35 0 77 -15.5t95 -68.5q39 -39 83 -90t71 -107v-12h-33q-20 0 -42.5 2t-51.5 9.5t-66 20.5t-86 36q-131 59 -131 143z" />
<glyph unicode="&#xd3;" horiz-adv-x="1486" d="M115 680q0 160 43 295t123.5 232.5t200.5 151.5t274 54q141 0 254.5 -51t194.5 -143.5t125 -221.5t44 -282q0 -160 -43 -295t-124 -232.5t-200.5 -152.5t-273.5 -55q-127 0 -238.5 47t-196.5 137t-134 220t-49 296zM301 715q0 -272 113.5 -417.5t341.5 -145.5 q100 0 181 36.5t136 105t85 167t30 219.5q0 281 -109.5 421t-345.5 140q-199 0 -315.5 -130t-116.5 -396zM645 1542v12q27 55 71 106.5t83 90.5q53 53 95 68.5t77 15.5q41 0 62.5 -23.5t21.5 -58.5q0 -84 -131 -143q-98 -45 -152.5 -56.5t-93.5 -11.5h-33z" />
<glyph unicode="&#xd4;" horiz-adv-x="1486" d="M115 680q0 160 43 295t123.5 232.5t200.5 151.5t274 54q141 0 254.5 -51t194.5 -143.5t125 -221.5t44 -282q0 -160 -43 -295t-124 -232.5t-200.5 -152.5t-273.5 -55q-127 0 -238.5 47t-196.5 137t-134 220t-49 296zM301 715q0 -272 113.5 -417.5t341.5 -145.5 q100 0 181 36.5t136 105t85 167t30 219.5q0 281 -109.5 421t-345.5 140q-199 0 -315.5 -130t-116.5 -396zM436 1475v81q0 80 66 117l243 142l240 -140q35 -20 53.5 -48t18.5 -71v-81l-314 159z" />
<glyph unicode="&#xd5;" horiz-adv-x="1486" d="M115 680q0 160 43 295t123.5 232.5t200.5 151.5t274 54q141 0 254.5 -51t194.5 -143.5t125 -221.5t44 -282q0 -160 -43 -295t-124 -232.5t-200.5 -152.5t-273.5 -55q-127 0 -238.5 47t-196.5 137t-134 220t-49 296zM301 715q0 -272 113.5 -417.5t341.5 -145.5 q100 0 181 36.5t136 105t85 167t30 219.5q0 281 -109.5 421t-345.5 140q-199 0 -315.5 -130t-116.5 -396zM385 1616q0 53 18.5 92t48 63.5t64.5 36t68 11.5t70.5 -17.5t66.5 -46.5q35 -35 59.5 -56.5t53.5 -21.5q84 0 84 144h59q18 0 40.5 -21.5t22.5 -64.5 q0 -94 -59 -147.5t-147 -53.5q-35 0 -76 22.5t-68 51.5q-29 29 -54.5 48t-47.5 19q-43 0 -62.5 -38t-19.5 -105h-57q-16 0 -40 20.5t-24 63.5z" />
<glyph unicode="&#xd6;" horiz-adv-x="1486" d="M115 680q0 160 43 295t123.5 232.5t200.5 151.5t274 54q141 0 254.5 -51t194.5 -143.5t125 -221.5t44 -282q0 -160 -43 -295t-124 -232.5t-200.5 -152.5t-273.5 -55q-127 0 -238.5 47t-196.5 137t-134 220t-49 296zM301 715q0 -272 113.5 -417.5t341.5 -145.5 q100 0 181 36.5t136 105t85 167t30 219.5q0 281 -109.5 421t-345.5 140q-199 0 -315.5 -130t-116.5 -396zM410 1669q0 51 36.5 87t88.5 36q51 0 86.5 -36t35.5 -87t-35.5 -88t-86.5 -37t-88 37t-37 88zM836 1669q0 51 35.5 87t86.5 36t88 -36t37 -87t-36.5 -88t-88.5 -37 q-51 0 -86.5 37t-35.5 88z" />
<glyph unicode="&#xd7;" d="M115 981l55 57q29 27 65.5 27t71.5 -35l291 -291l348 348l55 -57q29 -27 29 -63.5t-35 -73.5l-276 -275l387 -387l-59 -59q-29 -29 -64 -28t-76 42l-309 310l-365 -365l-57 59q-29 29 -27.5 64t41.5 76l287 288z" />
<glyph unicode="&#xd8;" horiz-adv-x="1499" d="M115 680q0 158 39 292t117.5 232.5t199.5 153.5t285 55q104 0 194 -30.5t164 -86.5l88 117h41q29 0 40 -16.5t11 -32.5q0 -20 -8 -37.5t-18 -30.5l-64 -84q82 -94 126 -220t44 -277q0 -160 -43 -295t-124 -232.5t-200.5 -152.5t-273.5 -55q-102 0 -195.5 31.5 t-170.5 90.5l-93 -122h-43q-14 0 -28.5 15t-14.5 46q0 16 16.5 46t35.5 54l34 49q-76 90 -117.5 213t-41.5 277zM301 715q0 -244 84 -379l627 825q-109 80 -279 80q-199 0 -315.5 -130t-116.5 -396zM471 240q111 -88 285 -88q98 0 179 36.5t137 105t87 167t31 219.5 q0 252 -92 391z" />
<glyph unicode="&#xd9;" horiz-adv-x="1400" d="M143 629v764h66q68 0 95.5 -32t27.5 -116v-600q0 -260 90 -375.5t285 -115.5q98 0 167.5 27.5t112.5 85t62.5 147.5t19.5 215v764h72q117 0 116 -138v-610q0 -319 -143 -492t-420 -173q-276 0 -413.5 170t-137.5 479zM365 1753q0 35 21.5 58.5t62.5 23.5q35 0 76.5 -15.5 t95.5 -68.5q39 -39 83 -90t70 -107v-12h-33q-20 0 -42.5 2t-51.5 9.5t-65.5 20.5t-85.5 36q-131 59 -131 143z" />
<glyph unicode="&#xda;" horiz-adv-x="1400" d="M143 629v764h66q68 0 95.5 -32t27.5 -116v-600q0 -260 90 -375.5t285 -115.5q98 0 167.5 27.5t112.5 85t62.5 147.5t19.5 215v764h72q117 0 116 -138v-610q0 -319 -143 -492t-420 -173q-276 0 -413.5 170t-137.5 479zM543 1544v12q27 55 70.5 106.5t82.5 90.5 q53 53 95.5 68.5t76.5 15.5q41 0 62.5 -23.5t21.5 -58.5q0 -84 -131 -143q-98 -45 -152.5 -56.5t-93.5 -11.5h-32z" />
<glyph unicode="&#xdb;" horiz-adv-x="1400" d="M143 629v764h66q68 0 95.5 -32t27.5 -116v-600q0 -260 90 -375.5t285 -115.5q98 0 167.5 27.5t112.5 85t62.5 147.5t19.5 215v764h72q117 0 116 -138v-610q0 -319 -143 -492t-420 -173q-276 0 -413.5 170t-137.5 479zM373 1475v81q0 80 65 117l244 142l240 -140 q35 -20 53 -48t18 -71v-81l-313 159z" />
<glyph unicode="&#xdc;" horiz-adv-x="1400" d="M143 629v764h66q68 0 95.5 -32t27.5 -116v-600q0 -260 90 -375.5t285 -115.5q98 0 167.5 27.5t112.5 85t62.5 147.5t19.5 215v764h72q117 0 116 -138v-610q0 -319 -143 -492t-420 -173q-276 0 -413.5 170t-137.5 479zM352 1669q0 51 37 87t88 36t87 -36t36 -87t-36 -88 t-87 -37t-88 37t-37 88zM778 1669q0 51 36 87t87 36t88 -36t37 -87t-37 -88t-88 -37t-87 37t-36 88z" />
<glyph unicode="&#xdd;" horiz-adv-x="1132" d="M31 1393h96q100 0 141 -101q53 -129 135 -274.5t185 -292.5q49 70 102 154t103.5 173t92.5 177t70 164h78q41 0 57.5 -20.5t16.5 -55.5q0 -23 -22.5 -73t-58.5 -116.5t-82 -142.5t-95 -150.5t-97 -140t-85 -110.5v-584h-70q-53 0 -86 26.5t-33 86.5v469 q-61 82 -125.5 182t-125 207.5t-111.5 215.5t-86 206zM483 1530v12q27 55 71 106.5t83 90.5q53 53 95 68.5t77 15.5q41 0 62.5 -23.5t21.5 -58.5q0 -84 -131 -144q-98 -45 -152.5 -56t-93.5 -11h-33z" />
<glyph unicode="&#xde;" horiz-adv-x="1187" d="M164 123v1270h90q37 0 68.5 -27t31.5 -68v-143q43 8 85 12t79 4h109q104 0 192 -28.5t152.5 -82.5t100.5 -134t36 -183q0 -98 -37 -181t-101.5 -144.5t-151.5 -95t-187 -33.5q-94 0 -166 15t-113 44v-348h-69q-53 0 -86 30t-33 93zM352 508q57 -31 129 -42t152 -11 q143 0 215 71.5t72 196.5q0 274 -289 274h-107q-35 0 -86 -6t-84 -14q0 -127 -1 -236.5t-1 -232.5z" />
<glyph unicode="&#xdf;" horiz-adv-x="1185" d="M143 143v820q0 121 38 216t103.5 160.5t156.5 100.5t198 35q86 0 159.5 -26t127 -69t83 -100t29.5 -123q0 -68 -33.5 -126t-82.5 -95l-103 -76q-37 -29 -59.5 -57.5t-22.5 -50.5q0 -37 17.5 -58.5t44.5 -38.5l133 -84q72 -45 117 -113.5t45 -154.5q0 -147 -96.5 -235 t-262.5 -88q-59 0 -100 13t-68.5 33.5t-40 46t-12.5 50.5v74h10q12 -10 36 -18.5t52.5 -15.5t58 -11.5t52.5 -4.5q98 0 141 37t43 115q0 57 -23.5 94t-64.5 64l-141 88q-45 29 -74 74t-29 114q0 63 30 114.5t69 82.5l119 92q27 20 43 53t16 64q0 76 -54.5 125t-168.5 49 q-145 0 -221 -89t-76 -278v-946h-62q-66 0 -96.5 41t-30.5 102z" />
<glyph unicode="&#xe0;" horiz-adv-x="1095" d="M115 303q0 178 131 271.5t379 93.5h147v51q0 121 -61.5 173t-196.5 52q-123 0 -212 -42t-136 -107h-10v90q0 37 24.5 78t71.5 74.5t117.5 56t162.5 22.5q211 0 318.5 -105.5t107.5 -305.5v-345q0 -84 -23.5 -153.5t-74.5 -119.5t-132 -78.5t-196 -28.5q-84 0 -159.5 23.5 t-133 65.5t-91 101t-33.5 133zM252 1497q0 35 21.5 58.5t62.5 23.5q35 0 77 -15.5t95 -68.5q39 -39 83 -90t71 -107v-12h-33q-20 0 -43 2t-51.5 9.5t-65.5 20.5t-86 36q-131 59 -131 143zM305 324q0 -72 64.5 -122t171.5 -50q125 0 179 52t54 171v137h-149q-166 0 -243 -48 t-77 -140z" />
<glyph unicode="&#xe1;" horiz-adv-x="1095" d="M115 303q0 178 131 271.5t379 93.5h147v51q0 121 -61.5 173t-196.5 52q-123 0 -212 -42t-136 -107h-10v90q0 37 24.5 78t71.5 74.5t117.5 56t162.5 22.5q211 0 318.5 -105.5t107.5 -305.5v-345q0 -84 -23.5 -153.5t-74.5 -119.5t-132 -78.5t-196 -28.5q-84 0 -159.5 23.5 t-133 65.5t-91 101t-33.5 133zM305 324q0 -72 64.5 -122t171.5 -50q125 0 179 52t54 171v137h-149q-166 0 -243 -48t-77 -140zM426 1286v12q27 55 71 106.5t83 90.5q53 53 95 68.5t77 15.5q41 0 62.5 -23.5t21.5 -58.5q0 -84 -131 -143q-98 -45 -152.5 -56.5t-93.5 -11.5 h-33z" />
<glyph unicode="&#xe2;" horiz-adv-x="1095" d="M115 303q0 178 131 271.5t379 93.5h147v51q0 121 -61.5 173t-196.5 52q-123 0 -212 -42t-136 -107h-10v90q0 37 24.5 78t71.5 74.5t117.5 56t162.5 22.5q211 0 318.5 -105.5t107.5 -305.5v-345q0 -84 -23.5 -153.5t-74.5 -119.5t-132 -78.5t-196 -28.5q-84 0 -159.5 23.5 t-133 65.5t-91 101t-33.5 133zM223 1217v81q0 80 66 117l243 141l240 -139q35 -20 53.5 -48t18.5 -71v-81l-314 159zM305 324q0 -72 64.5 -122t171.5 -50q125 0 179 52t54 171v137h-149q-166 0 -243 -48t-77 -140z" />
<glyph unicode="&#xe3;" horiz-adv-x="1095" d="M115 303q0 178 131 271.5t379 93.5h147v51q0 121 -61.5 173t-196.5 52q-123 0 -212 -42t-136 -107h-10v90q0 37 24.5 78t71.5 74.5t117.5 56t162.5 22.5q211 0 318.5 -105.5t107.5 -305.5v-345q0 -84 -23.5 -153.5t-74.5 -119.5t-132 -78.5t-196 -28.5q-84 0 -159.5 23.5 t-133 65.5t-91 101t-33.5 133zM201 1358q0 53 18.5 92t48 63.5t64.5 36t67 11.5q33 0 71 -17.5t67 -46.5q35 -35 59.5 -56.5t52.5 -21.5q84 0 84 144h60q18 0 40.5 -21.5t22.5 -64.5q0 -94 -59.5 -147.5t-147.5 -53.5q-35 0 -76 22.5t-67 51.5q-29 29 -54.5 48t-48.5 19 q-43 0 -62 -38t-19 -105h-58q-16 0 -39.5 20.5t-23.5 63.5zM305 324q0 -72 64.5 -122t171.5 -50q125 0 179 52t54 171v137h-149q-166 0 -243 -48t-77 -140z" />
<glyph unicode="&#xe4;" horiz-adv-x="1095" d="M115 303q0 178 131 271.5t379 93.5h147v51q0 121 -61.5 173t-196.5 52q-123 0 -212 -42t-136 -107h-10v90q0 37 24.5 78t71.5 74.5t117.5 56t162.5 22.5q211 0 318.5 -105.5t107.5 -305.5v-345q0 -84 -23.5 -153.5t-74.5 -119.5t-132 -78.5t-196 -28.5q-84 0 -159.5 23.5 t-133 65.5t-91 101t-33.5 133zM197 1393q0 51 36.5 87t88.5 36q51 0 86.5 -36t35.5 -87t-35.5 -88t-86.5 -37t-88 37t-37 88zM305 324q0 -72 64.5 -122t171.5 -50q125 0 179 52t54 171v137h-149q-166 0 -243 -48t-77 -140zM623 1393q0 51 35.5 87t86.5 36t88 -36t37 -87 t-36.5 -88t-88.5 -37q-51 0 -86.5 37t-35.5 88z" />
<glyph unicode="&#xe5;" horiz-adv-x="1095" d="M115 303q0 178 131 271.5t379 93.5h147v51q0 121 -61.5 173t-196.5 52q-123 0 -212 -42t-136 -107h-10v90q0 37 24.5 78t71.5 74.5t117.5 56t162.5 22.5q211 0 318.5 -105.5t107.5 -305.5v-345q0 -84 -23.5 -153.5t-74.5 -119.5t-132 -78.5t-196 -28.5q-84 0 -159.5 23.5 t-133 65.5t-91 101t-33.5 133zM305 324q0 -72 64.5 -122t171.5 -50q125 0 179 52t54 171v137h-149q-166 0 -243 -48t-77 -140zM328 1448q0 43 13 81t40 67.5t69 47t97 17.5q111 0 164 -63.5t53 -149.5q0 -43 -14.5 -81t-42 -66.5t-68.5 -46t-92 -17.5q-55 0 -96 17.5t-69 47 t-41 67.5t-13 79zM459 1448q0 -41 25.5 -70.5t60.5 -29.5q39 0 65.5 26.5t26.5 73.5q0 45 -25.5 74.5t-64.5 29.5t-63.5 -29.5t-24.5 -74.5z" />
<glyph unicode="&#xe6;" horiz-adv-x="1785" d="M113 299q0 82 27.5 148.5t89 113.5t158.5 74t237 27h147v53q0 121 -62.5 171t-197.5 50q-123 0 -208 -40t-132 -105h-16v77q0 47 26.5 91.5t75.5 78t118.5 54t153.5 20.5q135 0 225.5 -55.5t141.5 -141.5q57 94 154.5 147.5t208.5 53.5q80 0 154.5 -30.5t132 -83t92 -121 t34.5 -146.5q0 -72 -19.5 -121t-69.5 -79.5t-138 -44t-223 -13.5h-260q0 -74 25.5 -133t70.5 -101t106.5 -64.5t132.5 -22.5q123 0 201 32.5t123 79.5h10v-8v-55q0 -104 -90 -164.5t-270 -60.5q-61 0 -121.5 15t-114 43t-94.5 66.5t-65 83.5q-47 -88 -131 -147t-228 -59 q-84 0 -157.5 22.5t-129 63.5t-87 99t-31.5 132zM315 324q0 -76 59.5 -123t151.5 -47q121 0 184.5 59t63.5 170v123h-149q-162 0 -236 -45t-74 -137zM963 629l208 2q104 0 167 5t95.5 15.5t42 28.5t9.5 45q0 106 -65.5 163.5t-176.5 57.5q-68 0 -120 -26.5t-88 -70.5 t-54 -101.5t-18 -118.5z" />
<glyph unicode="&#xe7;" horiz-adv-x="1067" d="M113 528q0 117 37.5 223.5t107.5 186.5t170 128t223 48q61 0 116.5 -15.5t96.5 -45t65.5 -74.5t24.5 -105v-77h-8q-14 31 -44 56.5t-68.5 43.5t-81.5 28.5t-82 10.5q-76 0 -142.5 -29.5t-117 -80t-79 -117t-28.5 -140.5q0 -109 35 -186.5t90 -127.5t121.5 -74.5 t130.5 -24.5q90 0 148.5 23.5t99.5 72.5h10v-78q0 -25 -11.5 -57.5t-42 -62t-82.5 -50t-134 -22.5l-9 -88q217 0 218 -148q0 -53 -21.5 -88t-57.5 -56.5t-81 -29.5t-92 -8q-27 0 -63 3t-67.5 15t-53 36t-21.5 65v47h6h4q29 -27 84 -38t98 -11q66 0 90.5 11t24.5 48 q0 33 -23.5 45t-85.5 12q-27 0 -54 -1t-50 -5q4 14 11 39t14.5 52.5t14.5 56t13 51.5q-80 14 -161.5 56t-146 109.5t-105.5 160.5t-41 212z" />
<glyph unicode="&#xe8;" horiz-adv-x="1150" d="M113 526q0 133 38.5 242t107.5 186.5t163 119.5t203 42q80 0 154.5 -28.5t132 -80t92 -121t34.5 -151.5q0 -72 -19.5 -124t-71.5 -84.5t-142 -48t-232 -15.5h-270q14 -137 105.5 -224t244.5 -87q127 0 206 33.5t126 78.5h10v-82q0 -86 -91 -144t-277 -58 q-113 0 -207 40.5t-163 113.5t-106.5 173t-37.5 219zM293 1497q0 35 21.5 58.5t62.5 23.5q35 0 77 -15.5t95 -68.5q39 -39 83 -90t70 -107v-12h-32q-20 0 -43 2t-51.5 9.5t-65.5 20.5t-86 36q-131 59 -131 143zM301 610l248 4q98 2 159.5 8.5t94.5 18.5t44 32.5t11 51.5 q0 45 -15.5 85t-47 70.5t-79.5 49t-112 18.5q-68 0 -122 -25.5t-93 -67.5t-61.5 -94t-24.5 -106z" />
<glyph unicode="&#xe9;" horiz-adv-x="1150" d="M113 526q0 133 38.5 242t107.5 186.5t163 119.5t203 42q80 0 154.5 -28.5t132 -80t92 -121t34.5 -151.5q0 -72 -19.5 -124t-71.5 -84.5t-142 -48t-232 -15.5h-270q14 -137 105.5 -224t244.5 -87q127 0 206 33.5t126 78.5h10v-82q0 -86 -91 -144t-277 -58 q-113 0 -207 40.5t-163 113.5t-106.5 173t-37.5 219zM301 610l248 4q98 2 159.5 8.5t94.5 18.5t44 32.5t11 51.5q0 45 -15.5 85t-47 70.5t-79.5 49t-112 18.5q-68 0 -122 -25.5t-93 -67.5t-61.5 -94t-24.5 -106zM481 1286v12q27 55 71 106.5t83 90.5q53 53 95 68.5t77 15.5 q41 0 62.5 -23.5t21.5 -58.5q0 -84 -131 -143q-98 -45 -152.5 -56.5t-93.5 -11.5h-33z" />
<glyph unicode="&#xea;" horiz-adv-x="1150" d="M113 526q0 133 38.5 242t107.5 186.5t163 119.5t203 42q80 0 154.5 -28.5t132 -80t92 -121t34.5 -151.5q0 -72 -19.5 -124t-71.5 -84.5t-142 -48t-232 -15.5h-270q14 -137 105.5 -224t244.5 -87q127 0 206 33.5t126 78.5h10v-82q0 -86 -91 -144t-277 -58 q-113 0 -207 40.5t-163 113.5t-106.5 173t-37.5 219zM301 610l248 4q98 2 159.5 8.5t94.5 18.5t44 32.5t11 51.5q0 45 -15.5 85t-47 70.5t-79.5 49t-112 18.5q-68 0 -122 -25.5t-93 -67.5t-61.5 -94t-24.5 -106zM303 1217v81q0 80 66 117l243 141l240 -139q35 -20 53.5 -48 t18.5 -71v-81l-314 159z" />
<glyph unicode="&#xeb;" horiz-adv-x="1150" d="M113 526q0 133 38.5 242t107.5 186.5t163 119.5t203 42q80 0 154.5 -28.5t132 -80t92 -121t34.5 -151.5q0 -72 -19.5 -124t-71.5 -84.5t-142 -48t-232 -15.5h-270q14 -137 105.5 -224t244.5 -87q127 0 206 33.5t126 78.5h10v-82q0 -86 -91 -144t-277 -58 q-113 0 -207 40.5t-163 113.5t-106.5 173t-37.5 219zM250 1393q0 51 37 87t88 36t87 -36t36 -87t-36 -88t-87 -37t-88 37t-37 88zM301 610l248 4q98 2 159.5 8.5t94.5 18.5t44 32.5t11 51.5q0 45 -15.5 85t-47 70.5t-79.5 49t-112 18.5q-68 0 -122 -25.5t-93 -67.5 t-61.5 -94t-24.5 -106zM676 1393q0 51 36 87t87 36t88 -36t37 -87t-37 -88t-88 -37t-87 37t-36 88z" />
<glyph unicode="&#xec;" horiz-adv-x="649" d="M-20 1497q0 35 21.5 58.5t61.5 23.5q35 0 77 -15.5t96 -68.5q39 -39 82.5 -90t70.5 -107v-12h-33q-20 0 -42.5 2t-51.5 9.5t-65.5 20.5t-85.5 36q-131 59 -131 143zM197 315v781h57q47 0 88 -37t41 -109v-608q0 -102 46 -141t124 -39h80v-62q0 -53 -30 -81.5t-79 -28.5 q-327 -1 -327 325z" />
<glyph unicode="&#xed;" horiz-adv-x="649" d="M168 1286v12q27 55 71 106.5t83 90.5q53 53 95 68.5t77 15.5q41 0 62.5 -23.5t21.5 -58.5q0 -84 -132 -143q-98 -45 -152 -56.5t-93 -11.5h-33zM197 315v781h57q47 0 88 -37t41 -109v-608q0 -102 46 -141t124 -39h80v-62q0 -53 -30 -81.5t-79 -28.5q-327 -1 -327 325z " />
<glyph unicode="&#xee;" horiz-adv-x="649" d="M-23 1217v81q0 80 66 117l244 141l239 -139q35 -20 53.5 -48t18.5 -71v-81l-313 159zM197 315v781h57q47 0 88 -37t41 -109v-608q0 -102 46 -141t124 -39h80v-62q0 -53 -30 -81.5t-79 -28.5q-327 -1 -327 325z" />
<glyph unicode="&#xef;" horiz-adv-x="649" d="M-84 1393q0 51 37 87t88 36t87 -36t36 -87t-36 -88t-87 -37t-88 37t-37 88zM156 315v781h57q47 0 88 -37t41 -109v-608q0 -102 46 -141t124 -39h80v-62q0 -53 -30 -81.5t-79 -28.5q-327 -1 -327 325zM342 1393q0 51 36 87t87 36t88 -36t37 -87t-37 -88t-88 -37t-87 37 t-36 88z" />
<glyph unicode="&#xf0;" horiz-adv-x="1232" d="M117 532q0 125 30.5 230.5t92 182.5t152.5 120t212 43q43 0 87 -7t85 -22.5t75 -40t54 -57.5q-18 82 -46 143.5t-62.5 105.5t-73.5 75.5t-80 54.5l-215 -170q-23 20 -33 35.5t-4 50.5q8 25 33 45l119 96q-29 12 -54.5 16.5t-60.5 12.5q-31 8 -49.5 25.5t-18.5 33.5v70 l62 -2q63 -4 127.5 -21.5t126.5 -40.5l166 134l30 -31q10 -10 11.5 -22.5t-2.5 -28.5q-4 -23 -24.5 -41.5t-37.5 -32.5q-6 -4 -15 -11.5t-32 -23.5q80 -55 143.5 -136t107.5 -181.5t68.5 -219t24.5 -249.5v-97v-2q0 -125 -33.5 -233.5t-98 -188t-160 -126t-220.5 -46.5 q-117 0 -207 46.5t-152.5 123t-95 176.5t-32.5 211zM303 573q0 -197 78 -308t248 -111q74 0 129 27.5t92 77.5t55.5 118.5t18.5 150.5q0 199 -78 305.5t-248 106.5q-147 0 -221 -100.5t-74 -266.5z" />
<glyph unicode="&#xf1;" horiz-adv-x="1191" d="M143 127v502q0 115 33 206t94.5 153.5t147.5 95t190 32.5q207 0 324 -118.5t117 -366.5v-631h-68q-117 0 -117 121v504q0 172 -65.5 243.5t-212.5 71.5q-123 0 -190.5 -73.5t-67.5 -241.5v-625h-70q-51 0 -83 30.5t-32 96.5zM262 1358q0 53 18.5 92t48 63.5t64.5 36 t68 11.5t70.5 -17.5t66.5 -46.5q35 -35 59.5 -56.5t53.5 -21.5q84 0 84 144h59q18 0 41 -21.5t23 -64.5q0 -94 -59.5 -147.5t-147.5 -53.5q-35 0 -76 22.5t-68 51.5q-29 29 -54.5 48t-47.5 19q-43 0 -62.5 -38t-19.5 -105h-57q-16 0 -40 20.5t-24 63.5z" />
<glyph unicode="&#xf2;" horiz-adv-x="1226" d="M113 528q0 135 35.5 244t102 184.5t160 116.5t210.5 41q109 0 199.5 -39t155 -110.5t100.5 -172t36 -223.5q0 -139 -35 -247.5t-99.5 -185.5t-155.5 -116.5t-201 -39.5q-109 0 -202 39.5t-161 112.5t-106.5 173t-38.5 223zM272 1497q0 35 21.5 58.5t62.5 23.5 q35 0 77 -15.5t95 -68.5q39 -39 83 -90t71 -107v-12h-33q-20 0 -42.5 2t-51.5 9.5t-65.5 20.5t-86.5 36q-131 59 -131 143zM301 567q0 -190 88 -300.5t250 -110.5q70 0 123 27.5t89 76.5t54.5 117.5t18.5 148.5q0 205 -84 308.5t-246 103.5q-133 0 -213 -99.5t-80 -271.5z " />
<glyph unicode="&#xf3;" horiz-adv-x="1226" d="M113 528q0 135 35.5 244t102 184.5t160 116.5t210.5 41q109 0 199.5 -39t155 -110.5t100.5 -172t36 -223.5q0 -139 -35 -247.5t-99.5 -185.5t-155.5 -116.5t-201 -39.5q-109 0 -202 39.5t-161 112.5t-106.5 173t-38.5 223zM301 567q0 -190 88 -300.5t250 -110.5 q70 0 123 27.5t89 76.5t54.5 117.5t18.5 148.5q0 205 -84 308.5t-246 103.5q-133 0 -213 -99.5t-80 -271.5zM502 1286v12q27 55 70.5 106.5t82.5 90.5q53 53 95.5 68.5t76.5 15.5q41 0 62.5 -23.5t21.5 -58.5q0 -84 -131 -143q-98 -45 -152.5 -56.5t-92.5 -11.5h-33z" />
<glyph unicode="&#xf4;" horiz-adv-x="1226" d="M113 528q0 135 35.5 244t102 184.5t160 116.5t210.5 41q109 0 199.5 -39t155 -110.5t100.5 -172t36 -223.5q0 -139 -35 -247.5t-99.5 -185.5t-155.5 -116.5t-201 -39.5q-109 0 -202 39.5t-161 112.5t-106.5 173t-38.5 223zM301 567q0 -190 88 -300.5t250 -110.5 q70 0 123 27.5t89 76.5t54.5 117.5t18.5 148.5q0 205 -84 308.5t-246 103.5q-133 0 -213 -99.5t-80 -271.5zM311 1217v81q0 80 66 117l244 141l239 -139q35 -20 53.5 -48t18.5 -71v-81l-314 159z" />
<glyph unicode="&#xf5;" horiz-adv-x="1226" d="M113 528q0 135 35.5 244t102 184.5t160 116.5t210.5 41q109 0 199.5 -39t155 -110.5t100.5 -172t36 -223.5q0 -139 -35 -247.5t-99.5 -185.5t-155.5 -116.5t-201 -39.5q-109 0 -202 39.5t-161 112.5t-106.5 173t-38.5 223zM283 1358q0 53 18 92t48 63.5t65 36t67 11.5 q33 0 71 -17.5t66 -46.5q35 -35 59.5 -56.5t53.5 -21.5q84 0 84 144h59q18 0 41 -21.5t23 -64.5q0 -94 -59.5 -147.5t-147.5 -53.5q-35 0 -76 22.5t-67 51.5q-29 29 -54.5 48t-48.5 19q-43 0 -62.5 -38t-19.5 -105h-57q-16 0 -39.5 20.5t-23.5 63.5zM301 567 q0 -190 88 -300.5t250 -110.5q70 0 123 27.5t89 76.5t54.5 117.5t18.5 148.5q0 205 -84 308.5t-246 103.5q-133 0 -213 -99.5t-80 -271.5z" />
<glyph unicode="&#xf6;" horiz-adv-x="1226" d="M113 528q0 135 35.5 244t102 184.5t160 116.5t210.5 41q109 0 199.5 -39t155 -110.5t100.5 -172t36 -223.5q0 -139 -35 -247.5t-99.5 -185.5t-155.5 -116.5t-201 -39.5q-109 0 -202 39.5t-161 112.5t-106.5 173t-38.5 223zM270 1393q0 51 37 87t88 36t87 -36t36 -87 t-36 -88t-87 -37t-88 37t-37 88zM301 567q0 -190 88 -300.5t250 -110.5q70 0 123 27.5t89 76.5t54.5 117.5t18.5 148.5q0 205 -84 308.5t-246 103.5q-133 0 -213 -99.5t-80 -271.5zM696 1393q0 51 36 87t87 36t88 -36t37 -87t-37 -88t-88 -37t-87 37t-36 88z" />
<glyph unicode="&#xf7;" horiz-adv-x="450" />
<glyph unicode="&#xf8;" horiz-adv-x="1226" d="M113 528q0 135 35.5 244t102 184.5t160 116.5t210.5 41q145 0 260 -70l65 93h41q29 0 45.5 -27t16.5 -47q0 -8 -2.5 -17.5t-8.5 -19.5l-53 -74q59 -72 93 -169t34 -214q0 -139 -35 -247.5t-99.5 -185.5t-155.5 -116.5t-201 -39.5q-76 0 -143.5 19t-125.5 54l-67 -96h-41 q-14 0 -38 14.5t-24 44.5q0 14 4 32t17 36l43 61q-63 72 -98 169t-35 214zM297 567q0 -78 14.5 -145.5t44.5 -118.5l422 596q-72 45 -184 45q-135 0 -216 -101.5t-81 -275.5zM455 199q76 -49 184 -49q70 0 124 28.5t91 78.5t55.5 118.5t18.5 150.5q0 168 -54 267z" />
<glyph unicode="&#xf9;" horiz-adv-x="1191" d="M143 487v609h58q129 0 129 -146v-452q0 -168 75.5 -255t196.5 -87q129 0 194.5 77.5t65.5 255.5v607h51q135 0 136 -146v-479q0 -242 -119 -366.5t-340 -124.5q-100 0 -183 33.5t-141.5 99t-90.5 159.5t-32 215zM272 1497q0 35 21.5 58.5t62.5 23.5q35 0 77 -15.5 t95 -68.5q39 -39 83 -90t71 -107v-12h-33q-20 0 -42.5 2t-51.5 9.5t-65.5 20.5t-86.5 36q-131 59 -131 143z" />
<glyph unicode="&#xfa;" horiz-adv-x="1191" d="M143 487v609h58q129 0 129 -146v-452q0 -168 75.5 -255t196.5 -87q129 0 194.5 77.5t65.5 255.5v607h51q135 0 136 -146v-479q0 -242 -119 -366.5t-340 -124.5q-100 0 -183 33.5t-141.5 99t-90.5 159.5t-32 215zM461 1286v12q27 55 70.5 106.5t82.5 90.5q53 53 95.5 68.5 t76.5 15.5q41 0 62.5 -23.5t21.5 -58.5q0 -84 -131 -143q-98 -45 -152.5 -56.5t-92.5 -11.5h-33z" />
<glyph unicode="&#xfb;" horiz-adv-x="1191" d="M143 487v609h58q129 0 129 -146v-452q0 -168 75.5 -255t196.5 -87q129 0 194.5 77.5t65.5 255.5v607h51q135 0 136 -146v-479q0 -242 -119 -366.5t-340 -124.5q-100 0 -183 33.5t-141.5 99t-90.5 159.5t-32 215zM283 1217v81q0 80 65 117l244 141l239 -139 q35 -20 53.5 -48t18.5 -71v-81l-313 159z" />
<glyph unicode="&#xfc;" horiz-adv-x="1191" d="M143 487v609h58q129 0 129 -146v-452q0 -168 75.5 -255t196.5 -87q129 0 194.5 77.5t65.5 255.5v607h51q135 0 136 -146v-479q0 -242 -119 -366.5t-340 -124.5q-100 0 -183 33.5t-141.5 99t-90.5 159.5t-32 215zM250 1393q0 51 37 87t88 36t87 -36t36 -87t-36 -88 t-87 -37t-88 37t-37 88zM676 1393q0 51 36 87t87 36t88 -36t37 -87t-37 -88t-88 -37t-87 37t-36 88z" />
<glyph unicode="&#xfd;" horiz-adv-x="1087" d="M53 1096h107q57 0 80.5 -36t33.5 -75q18 -82 48 -177t68 -193.5t84 -194.5t97 -180q43 76 92.5 185.5t93.5 228t77.5 235.5t48.5 207h73q37 0 61.5 -17.5t24.5 -66.5q0 -16 -8 -54t-14 -61q-31 -123 -78 -245t-95 -228.5t-90 -190.5l-65 -129q-66 -133 -119 -222 t-103 -142t-101.5 -76.5t-108.5 -23.5q-63 0 -102 29.5t-39 64.5v69h88q33 0 60.5 7.5t58 33t66.5 77.5t83 142q-66 98 -129 222.5t-120.5 259.5t-102.5 275.5t-70 275.5zM461 1286v12q27 55 70.5 106.5t82.5 90.5q53 53 95.5 68.5t76.5 15.5q41 0 62.5 -23.5t21.5 -58.5 q0 -84 -131 -143q-98 -45 -152.5 -56.5t-92.5 -11.5h-33z" />
<glyph unicode="&#xfe;" horiz-adv-x="1251" d="M143 -207v524v201v957h58q57 0 94 -36t37 -108v-340q47 59 139 92t197 33q90 0 175 -39t150.5 -110.5t105.5 -172t40 -221.5q0 -141 -38 -250.5t-104.5 -186.5t-155.5 -116.5t-194 -39.5q-94 0 -178 39.5t-137 125.5v-493h-68q-59 0 -90 31.5t-31 109.5zM332 489 q18 -172 108 -253.5t228 -81.5q133 0 207.5 94t74.5 274q0 111 -23.5 191t-66.5 130t-102.5 73.5t-130.5 23.5q-129 0 -204 -80t-91 -217v-154z" />
<glyph unicode="&#xff;" horiz-adv-x="1087" d="M53 1096h107q57 0 80.5 -36t33.5 -75q18 -82 48 -177t68 -193.5t84 -194.5t97 -180q43 76 92.5 185.5t93.5 228t77.5 235.5t48.5 207h73q37 0 61.5 -17.5t24.5 -66.5q0 -16 -8 -54t-14 -61q-31 -123 -78 -245t-95 -228.5t-90 -190.5l-65 -129q-66 -133 -119 -222 t-103 -142t-101.5 -76.5t-108.5 -23.5q-63 0 -102 29.5t-39 64.5v69h88q33 0 60.5 7.5t58 33t66.5 77.5t83 142q-66 98 -129 222.5t-120.5 259.5t-102.5 275.5t-70 275.5zM229 1393q0 51 37 87t88 36t87 -36t36 -87t-35.5 -88t-87.5 -37q-51 0 -88 37t-37 88zM655 1393 q0 51 36 87t87 36t88 -36t37 -87t-37 -88t-88 -37t-87 37t-36 88z" />
<glyph unicode="&#x152;" horiz-adv-x="2084" d="M115 680q0 158 36.5 292t111.5 232.5t189.5 153.5t270.5 55q68 0 133.5 -17.5t123.5 -49t104 -78.5t73 -107q10 113 54 169t116 56h696v-69q0 -35 -25.5 -66.5t-84.5 -31.5h-572q-16 -80 -22 -193t-6 -227h551v-56q0 -37 -28 -68.5t-91 -31.5h-432v-117 q0 -104 19.5 -174.5t64.5 -113.5t114.5 -62.5t171.5 -19.5h80q66 0 138.5 12t119.5 27v-54q0 -37 -9 -64.5t-36.5 -47t-78 -29.5t-132.5 -10h-137q-195 0 -303 74.5t-145 214.5q-49 -135 -165 -217t-308 -82q-121 0 -227.5 47t-188.5 137t-129 220t-47 296zM297 715 q0 -274 107.5 -418.5t324.5 -144.5q121 0 199 51t122 132t61 180t17 198q0 104 -20.5 200.5t-68.5 169t-129 115.5t-201 43q-184 0 -298 -130t-114 -396z" />
<glyph unicode="&#x153;" horiz-adv-x="1961" d="M113 528q0 135 35.5 244t102 184.5t160 116.5t210.5 41q147 0 249.5 -65.5t161.5 -174.5q53 100 158.5 171t241.5 71q80 0 155.5 -28.5t134 -81t93 -123t34.5 -156.5q0 -70 -19.5 -120t-71.5 -81.5t-142 -47t-232 -15.5h-270q14 -137 104.5 -225t243.5 -88 q131 0 211 34.5t123 79.5h10v-59q0 -104 -92 -164.5t-278 -60.5q-74 0 -138.5 18t-119 50t-96.5 74t-68 91q-25 -47 -60.5 -90t-85 -75t-111 -50t-136.5 -18q-109 0 -202 39.5t-161 112.5t-106.5 173t-38.5 223zM299 567q0 -190 89 -302.5t251 -112.5q70 0 123 28.5t89 78.5 t54.5 118.5t18.5 148.5q0 205 -84 310.5t-246 105.5q-133 0 -214 -101.5t-81 -273.5zM1112 614l248 4q100 2 160.5 7.5t94.5 17.5t45 30.5t11 45.5q0 59 -19.5 102t-54 71t-82 41t-100.5 13q-66 0 -120 -26.5t-94 -68.5t-62.5 -93t-24.5 -103z" />
<glyph unicode="&#x178;" horiz-adv-x="1132" d="M31 1393h96q100 0 141 -101q53 -129 135 -274.5t185 -292.5q49 70 102 154t103.5 173t92.5 177t70 164h78q41 0 57.5 -20.5t16.5 -55.5q0 -23 -22.5 -73t-58.5 -116.5t-82 -142.5t-95 -150.5t-97 -140t-85 -110.5v-584h-70q-53 0 -86 26.5t-33 86.5v469 q-61 82 -125.5 182t-125 207.5t-111.5 215.5t-86 206zM250 1667q0 51 37 87t88 36t87 -36t36 -87t-36 -88t-87 -37t-88 37t-37 88zM676 1667q0 51 36 87t87 36t88 -36t37 -87t-37 -88t-88 -37t-87 37t-36 88z" />
<glyph unicode="&#x2c6;" horiz-adv-x="1243" d="M311 1237v82q0 80 66 117l244 141l239 -139q35 -20 53.5 -48t18.5 -71v-82l-314 160z" />
<glyph unicode="&#x2dc;" horiz-adv-x="851" d="M98 1358q0 53 18.5 92t48.5 63.5t64.5 36t67.5 11.5t71 -17.5t66 -46.5q35 -35 59.5 -56.5t53.5 -21.5q84 0 84 144h59q18 0 41 -21.5t23 -64.5q0 -94 -59.5 -147.5t-147.5 -53.5q-35 0 -76 22.5t-68 51.5q-29 29 -54 48t-48 19q-43 0 -62.5 -38t-19.5 -105h-57 q-16 0 -40 20.5t-24 63.5z" />
<glyph unicode="&#x2013;" d="M164 549v49q0 47 25.5 79t91.5 32h727v-74q0 -29 -25 -57.5t-70 -28.5h-749z" />
<glyph unicode="&#x2014;" horiz-adv-x="2086" d="M113 549v49q0 47 26.5 79t91.5 32h1706v-74q0 -29 -24.5 -57.5t-69.5 -28.5h-1730z" />
<glyph unicode="&#x2018;" horiz-adv-x="565" d="M119 1176q0 145 74.5 239t207.5 101v-13q-47 -49 -73.5 -102t-26.5 -101q0 -35 16.5 -68.5t44.5 -51.5q18 -14 35 -45t17 -60q0 -53 -36 -91t-108 -38q-59 0 -105 54.5t-46 175.5z" />
<glyph unicode="&#x2019;" horiz-adv-x="565" d="M152 1346q0 53 35.5 91t107.5 38q59 0 105 -54.5t46 -175.5q0 -145 -74.5 -239.5t-207.5 -100.5v13q47 49 73.5 102t26.5 100q0 35 -16.5 68t-44.5 53q-18 12 -34.5 44t-16.5 61z" />
<glyph unicode="&#x201a;" horiz-adv-x="565" d="M152 121q0 53 35.5 91t107.5 38q59 0 105 -54.5t46 -175.5q0 -145 -74.5 -239t-207.5 -100v12q47 49 73.5 102t26.5 101q0 35 -16.5 67.5t-44.5 52.5q-18 12 -34.5 44t-16.5 61z" />
<glyph unicode="&#x201c;" horiz-adv-x="880" d="M78 1176q0 145 74.5 239t207.5 101v-13q-47 -49 -73.5 -102t-26.5 -101q0 -35 16.5 -67.5t45.5 -52.5q18 -12 34.5 -44t16.5 -61q0 -53 -36 -91t-108 -38q-59 0 -105 54.5t-46 175.5zM483 1176q0 145 75 239t208 101v-13q-47 -49 -73.5 -102t-26.5 -101q0 -35 16 -67.5 t45 -52.5q18 -12 34.5 -44t16.5 -61q0 -53 -35.5 -91t-107.5 -38q-59 0 -105.5 54.5t-46.5 175.5z" />
<glyph unicode="&#x201d;" horiz-adv-x="880" d="M102 1346q0 53 36 91t108 38q59 0 105 -54.5t46 -175.5q0 -145 -74.5 -239.5t-207.5 -100.5v13q47 49 73.5 102t26.5 100q0 35 -16.5 68t-44.5 53q-18 12 -35 44t-17 61zM506 1346q0 53 36 91t107 38q59 0 105.5 -54.5t46.5 -175.5q0 -145 -75 -239.5t-208 -100.5v13 q49 49 74.5 102t25.5 100q0 35 -16 68t-45 53q-18 12 -34.5 44t-16.5 61z" />
<glyph unicode="&#x201e;" horiz-adv-x="880" d="M152 121q0 53 35.5 91t107.5 38q59 0 105 -54.5t46 -175.5q0 -145 -74.5 -239t-207.5 -100v12q47 49 73.5 102t26.5 101q0 35 -16.5 67.5t-44.5 52.5q-18 12 -34.5 44t-16.5 61zM643 121q0 53 36 91t107 38q59 0 105.5 -54.5t46.5 -175.5q0 -145 -75 -239t-208 -100v12 q47 49 74 102t27 101q0 35 -16.5 67.5t-45.5 52.5q-18 12 -34.5 44t-16.5 61z" />
<glyph unicode="&#x2022;" horiz-adv-x="667" d="M139 741q0 39 15.5 75t42 62.5t61.5 42t76 15.5q39 0 74.5 -15.5t62.5 -42t42 -62.5t15 -75q0 -41 -15 -75.5t-42 -61t-62.5 -42t-74.5 -15.5q-41 0 -76 15.5t-61.5 42t-42 61t-15.5 75.5z" />
<glyph unicode="&#x2026;" horiz-adv-x="1654" d="M135 143q0 63 43 104.5t105 41.5q61 0 103 -41t42 -105q0 -63 -42 -103t-103 -40t-104.5 40t-43.5 103zM688 143q0 63 43 104.5t105 41.5q61 0 103 -41t42 -105q0 -63 -42 -103t-103 -40t-104.5 40t-43.5 103zM1241 143q0 63 43 104.5t105 41.5q61 0 103 -41t42 -105 q0 -63 -42 -103t-103 -40t-104.5 40t-43.5 103z" />
<glyph unicode="&#x2039;" horiz-adv-x="694" d="M137 539l199 299q27 41 71 64.5t136 23.5h28l-241 -387l241 -389h-28q-84 0 -130 22.5t-77 69.5z" />
<glyph unicode="&#x203a;" horiz-adv-x="694" d="M113 150l241 389l-241 387h28q92 0 136.5 -23.5t70.5 -64.5l199 -299l-199 -297q-31 -47 -77 -69.5t-130 -22.5h-28z" />
<glyph unicode="&#x2122;" horiz-adv-x="1652" d="M43 1272v63q0 27 23.5 56.5t76.5 29.5h490v-59q0 -29 -27.5 -59.5t-70.5 -30.5h-113v-610h-74q-45 0 -71.5 21.5t-26.5 72.5v516h-207zM702 776q0 80 5.5 167t12.5 173t17.5 165t22.5 144h39q82 0 131 -36.5t67 -81.5q35 -82 66 -181.5t70 -230.5q27 78 48 158t50 157 q29 78 60.5 137.5t62.5 79.5h12q72 0 111 -42t49 -119q16 -135 26.5 -286t10.5 -308h-70q-47 0 -75.5 29.5t-28.5 91.5q0 53 -5.5 161.5t-17.5 284.5q-33 -111 -53.5 -187.5t-42.5 -148.5q-20 -68 -43 -130t-45 -103h-41q-23 0 -41.5 11t-35.5 37.5t-35.5 72t-37.5 110.5 q-10 35 -20 69t-22.5 72.5t-27 87t-32.5 111.5q-25 -367 -25 -571l-61 2q-43 2 -72 29.5t-29 74.5z" />
<glyph unicode="&#xe000;" horiz-adv-x="1095" d="M0 1095h1095v-1095h-1095v1095z" />
<glyph unicode="&#xfb01;" horiz-adv-x="1339" d="M164 133v963q0 72 24.5 140.5t71.5 121.5t113.5 85t152.5 32q49 0 86 -12.5t62.5 -33t38 -44t12.5 -44.5v-98h-10q-37 33 -77 44t-87 11q-109 0 -155 -52t-46 -171v-135h326v-68q0 -39 -32 -68.5t-91 -29.5h-205v-774h-69q-61 0 -88 37t-27 96zM840 1374q0 53 36.5 91 t90.5 38q53 0 89 -38t36 -91t-36 -90t-89 -37t-90 37t-37 90zM868 315v781h58q47 0 88 -37t41 -109v-608q0 -102 46 -141t124 -39h80v-62q0 -53 -30 -81.5t-79 -28.5q-328 -1 -328 325z" />
<glyph unicode="&#xfb02;" horiz-adv-x="1359" d="M164 133v963q0 72 24.5 140.5t71.5 121.5t113.5 85t152.5 32q49 0 86 -12.5t62.5 -33t38 -44t12.5 -44.5v-98h-10q-37 33 -77 44t-87 11q-109 0 -155 -52t-46 -171v-135h326v-68q0 -39 -32 -68.5t-91 -29.5h-205v-774h-69q-61 0 -88 37t-27 96zM868 317v1158h58 q57 0 94 -36t37 -108v-991q0 -102 47 -139t125 -37h121v-62q0 -111 -150 -110q-162 0 -247 79.5t-85 245.5z" />
<glyph unicode="&#xfb03;" horiz-adv-x="2099" d="M1604 1374q0 53 36.5 91t90.5 38q53 0 89 -38t36 -91t-36 -90t-89 -37t-90 37t-37 90zM1632 315v781h58q47 0 88 -37t41 -109v-608q0 -102 46 -141t124 -39h79v-62q0 -53 -29.5 -81.5t-78.5 -28.5q-328 -1 -328 325zM889 133v963q0 72 24.5 140.5t71.5 121.5t113.5 85 t152.5 32q49 0 86 -12.5t62.5 -33t38 -44t12.5 -44.5v-98h-10q-37 33 -77 44t-87 11q-109 0 -155 -52t-46 -171v-135h326v-68q0 -39 -32 -68.5t-91 -29.5h-205v-774h-69q-61 0 -88 37t-27 96zM164 133v963q0 72 24.5 140.5t71.5 121.5t113.5 85t152.5 32q49 0 86 -12.5 t62.5 -33t38 -44t12.5 -44.5v-98h-10q-37 33 -77 44t-87 11q-109 0 -155 -52t-46 -171v-135h326v-68q0 -39 -32 -68.5t-91 -29.5h-205v-774h-69q-61 0 -88 37t-27 96z" />
<glyph unicode="&#xfb04;" horiz-adv-x="2105" d="M1614 317v1158h57q57 0 94 -36t37 -108v-991q0 -102 47 -139t125 -37h121v-62q0 -111 -149 -110q-162 0 -247 79.5t-85 245.5zM889 133v963q0 72 24.5 140.5t71.5 121.5t113.5 85t152.5 32q49 0 86 -12.5t62.5 -33t38 -44t12.5 -44.5v-98h-10q-37 33 -77 44t-87 11 q-109 0 -155 -52t-46 -171v-135h326v-68q0 -39 -32 -68.5t-91 -29.5h-205v-774h-69q-61 0 -88 37t-27 96zM164 133v963q0 72 24.5 140.5t71.5 121.5t113.5 85t152.5 32q49 0 86 -12.5t62.5 -33t38 -44t12.5 -44.5v-98h-10q-37 33 -77 44t-87 11q-109 0 -155 -52t-46 -171 v-135h326v-68q0 -39 -32 -68.5t-91 -29.5h-205v-774h-69q-61 0 -88 37t-27 96z" />
</font>
</defs>
</svg>
